<mxfile host="Electron" modified="2023-04-05T14:12:52.838Z" agent="Mozilla/5.0 (Macintosh; Intel Mac OS X 10_15_6) AppleWebKit/537.36 (KHTML, like Gecko) draw.io/21.1.2 Chrome/106.0.5249.199 Electron/21.4.3 Safari/537.36" etag="LZ-UjmmxyGL-J5Q3E6H2" version="21.1.2" type="device">
  <diagram name="ページ1" id="vdTD70QAXZjR961GIT8d">
    <mxGraphModel dx="1434" dy="862" grid="1" gridSize="10" guides="1" tooltips="1" connect="1" arrows="1" fold="1" page="1" pageScale="1" pageWidth="827" pageHeight="1169" math="0" shadow="0">
      <root>
        <mxCell id="0" />
        <mxCell id="1" parent="0" />
        <mxCell id="hqfhk60S6aq-k6Tqml1s-1" value="" style="sketch=0;points=[[0,0,0],[0.25,0,0],[0.5,0,0],[0.75,0,0],[1,0,0],[0,1,0],[0.25,1,0],[0.5,1,0],[0.75,1,0],[1,1,0],[0,0.25,0],[0,0.5,0],[0,0.75,0],[1,0.25,0],[1,0.5,0],[1,0.75,0]];outlineConnect=0;fontColor=#232F3E;gradientColor=#945DF2;gradientDirection=north;fillColor=#5A30B5;strokeColor=#ffffff;dashed=0;verticalLabelPosition=bottom;verticalAlign=top;align=center;html=1;fontSize=12;fontStyle=0;aspect=fixed;shape=mxgraph.aws4.resourceIcon;resIcon=mxgraph.aws4.api_gateway;" parent="1" vertex="1">
          <mxGeometry x="319.85" y="395" width="78" height="78" as="geometry" />
        </mxCell>
        <mxCell id="hqfhk60S6aq-k6Tqml1s-3" value="" style="sketch=0;points=[[0,0,0],[0.25,0,0],[0.5,0,0],[0.75,0,0],[1,0,0],[0,1,0],[0.25,1,0],[0.5,1,0],[0.75,1,0],[1,1,0],[0,0.25,0],[0,0.5,0],[0,0.75,0],[1,0.25,0],[1,0.5,0],[1,0.75,0]];outlineConnect=0;fontColor=#232F3E;gradientColor=#F78E04;gradientDirection=north;fillColor=#D05C17;strokeColor=#ffffff;dashed=0;verticalLabelPosition=bottom;verticalAlign=top;align=center;html=1;fontSize=12;fontStyle=0;aspect=fixed;shape=mxgraph.aws4.resourceIcon;resIcon=mxgraph.aws4.lambda;" parent="1" vertex="1">
          <mxGeometry x="319.85" y="555" width="78" height="78" as="geometry" />
        </mxCell>
        <mxCell id="hqfhk60S6aq-k6Tqml1s-4" value="" style="shape=image;verticalLabelPosition=bottom;labelBackgroundColor=default;verticalAlign=top;aspect=fixed;imageAspect=0;image=https://linestep.jp/wp-content/uploads/2022/04/linelogo.png;" parent="1" vertex="1">
          <mxGeometry x="319.84999999999997" y="110" width="80.15" height="80" as="geometry" />
        </mxCell>
        <mxCell id="hqfhk60S6aq-k6Tqml1s-6" value="" style="shape=image;verticalLabelPosition=bottom;labelBackgroundColor=default;verticalAlign=top;aspect=fixed;imageAspect=0;image=https://2.bp.blogspot.com/-S1ZjkYqOjao/VRThOl3ijqI/AAAAAAAAscM/t8YbA6CV5d0/s800/job_telephone_operator.png;" parent="1" vertex="1">
          <mxGeometry x="399.85" y="200" width="72.15" height="80" as="geometry" />
        </mxCell>
        <mxCell id="hqfhk60S6aq-k6Tqml1s-8" value="" style="shape=image;verticalLabelPosition=bottom;labelBackgroundColor=default;verticalAlign=top;aspect=fixed;imageAspect=0;image=https://ih1.redbubble.net/image.4697382397.4519/st,small,845x845-pad,1000x1000,f8f8f8.jpg;" parent="1" vertex="1">
          <mxGeometry x="580" y="557" width="84.5" height="84.5" as="geometry" />
        </mxCell>
        <mxCell id="hqfhk60S6aq-k6Tqml1s-17" value="" style="shape=image;verticalLabelPosition=bottom;labelBackgroundColor=default;verticalAlign=top;aspect=fixed;imageAspect=0;image=data:image/png,iVBORw0KGgoAAAANSUhEUgAAA/wAAAP4CAYAAABgMPftAAAK4WlDQ1BJQ0MgUHJvZmlsZQAASImVlwdUU8kagOfem05CgIQISAm9CdIJICX0AArSQVRCEkgoIaagYFcWV3BVEBHBsoKrIgquroCsBbFgRbFhX5BFQHkuFmyovAs8wu6+89477z9n7nznv//8Zc7MOf8AQAnjSiSZsBoAWWK5NDLIlxmfkMjE9wEEGABN4ARMuDyZhB0REQZQmZz/Ku/vAWhsvm0z5uvf//9X0eALZDwAoCSUU/gyXhbKLeh4xZNI5QAgR1C98WK5ZIzvoEyXogmi3D/GaRP8ZYxTxhmjNm4THemHsgkABDKXK00DgGyH6pk5vDTUDzkCZTsxXyRGeRXKXjwhl48yGhfMyMrKHuNBlC1QewkAFDrKrJQ/+Uz7i/8UpX8uN03JE3WNC8FfJJNkcnP/z63535KVqZiMYYYOslAaHInODHT/7mdkhypZnDInfJJF/HH7cRYqgmMmmSfzS5xkPtc/VLk2c07YJKeKAjlKP3JO9CQLZAFRkyzNjlTGSpX6sSeZK52Kq8iIUeqFAo7Sf54wOm6Sc0SxcyZZlhEVOmXjp9RLFZHK/AXiIN+puIHK2rNkf6pXxFGulQujg5W1c6fyF4jZUz5l8crc+AL/gCmbGKW9RO6rjCXJjFDaCzKDlHpZTpRyrRw9nFNrI5R7mM4NiZhkEAaCABPEgEwgB1LARTkY+AMgFyyRjxXjly3JlYrShHImG71xAiZHzLOdwXSwc3AEYOz+ThyJt5Hj9xJinJ7SZe9Fj/J79M4UT+lSSgFoLABA6+GUzmQXANR8ABpaeQppzoQOM/bBAhKgAjrQBvrAGFgAG+AAXIAH8AEBIASEg2iQABYAHhCCLDTzxWAZWA0KQBHYDLaCCrAbVIMD4DA4ChrBSXAWXARXwU1wFzwCXaAXvARD4D0YgSAID1EgGqQNGUCmkDXkALEgLygACoMioQQoGUqDxJACWgathYqgEqgC2gPVQD9DJ6Cz0GWoA3oAdUMD0BvoM4zAZJgO68Fm8EyYBbPhUDgang+nwYvgPDgf3giXw1XwIbgBPgtfhe/CXfBLeBgBiArCQAwRG4SF+CHhSCKSikiRFUghUoZUIXVIM9KG3Ea6kEHkEwaHoWGYGBuMByYYE4PhYRZhVmA2YCowBzANmPOY25huzBDmG5aC1cVaY92xHGw8Ng27GFuALcPuwx7HXsDexfZi3+NwOAbOHOeKC8Yl4NJxS3EbcDtx9bgWXAeuBzeMx+O18dZ4T3w4nouX4wvw2/GH8Gfwt/C9+I8EFYIBwYEQSEgkiAlrCGWEg4TThFuEPsIIUY1oSnQnhhP5xFziJuJeYjPxBrGXOEJSJ5mTPEnRpHTSalI5qY50gfSY9FZFRcVIxU1lropIZZVKucoRlUsq3SqfyBpkK7IfOYmsIG8k7ye3kB+Q31IoFDOKDyWRIqdspNRQzlGeUj6q0lRtVTmqfNWVqpWqDaq3VF9RiVRTKpu6gJpHLaMeo96gDqoR1czU/NS4aivUKtVOqHWqDavT1O3Vw9Wz1DeoH1S/rN6vgdcw0wjQ4Gvka1RrnNPooSE0Y5ofjUdbS9tLu0DrpePo5nQOPZ1eRD9Mb6cPaWpoOmnGai7RrNQ8pdnFQBhmDA4jk7GJcZRxj/F5mt409jTBtPXT6qbdmvZBa7qWj5ZAq1CrXuuu1mdtpnaAdoZ2sXaj9hMdjI6VzlydxTq7dC7oDE6nT/eYzpteOP3o9Ie6sK6VbqTuUt1q3Wu6w3r6ekF6Er3teuf0BvUZ+j766fql+qf1BwxoBl4GIoNSgzMGL5iaTDYzk1nOPM8cMtQ1DDZUGO4xbDccMTI3ijFaY1Rv9MSYZMwyTjUuNW41HjIxMJltssyk1uShKdGUZSo03WbaZvrBzNwszmydWaNZv7mWOcc8z7zW/LEFxcLbYpFFlcUdS5wlyzLDcqflTSvYytlKaFVpdcMatnaxFlnvtO6YgZ3hNkM8o2pGpw3Zhm2TY1Nr023LsA2zXWPbaPtqpsnMxJnFM9tmfrNztsu022v3yF7DPsR+jX2z/RsHKweeQ6XDHUeKY6DjSscmx9dO1k4Cp11O951pzrOd1zm3On91cXWRutS5DLiauCa77nDtZNFZEawNrEtuWDdft5VuJ90+ubu4y92Puv/hYeOR4XHQo3+W+SzBrL2zejyNPLmeezy7vJheyV4/enV5G3pzvau8n/kY+/B99vn0sS3Z6exD7Fe+dr5S3+O+H/zc/Zb7tfgj/kH+hf7tARoBMQEVAU8DjQLTAmsDh4Kcg5YGtQRjg0ODi4M7OXocHqeGMxTiGrI85HwoOTQqtCL0WZhVmDSseTY8O2T2ltmP55jOEc9pDAfhnPAt4U8izCMWRfw6Fzc3Ym7l3OeR9pHLItuiaFELow5GvY/2jd4U/SjGIkYR0xpLjU2KrYn9EOcfVxLXFT8zfnn81QSdBFFCUyI+MTZxX+LwvIB5W+f1JjknFSTdm28+f8n8ywt0FmQuOLWQupC78FgyNjku+WDyF244t4o7nMJJ2ZEyxPPjbeO95PvwS/kDAk9BiaAv1TO1JLU/zTNtS9qA0FtYJhwU+YkqRK/Tg9N3p3/ICM/YnzGaGZdZn0XISs46IdYQZ4jPZ+tnL8nukFhLCiRdi9wXbV00JA2V7pNBsvmyJjkdbZSuKSwU3ym6c7xyKnM+Lo5dfGyJ+hLxkmu5Vrnrc/vyAvN+WopZylvausxw2epl3cvZy/esgFakrGhdabwyf2XvqqBVB1aTVmesvr7Gbk3Jmndr49Y25+vlr8rv+S7ou9oC1QJpQec6j3W7v8d8L/q+fb3j+u3rvxXyC68U2RWVFX3ZwNtw5Qf7H8p/GN2YurF9k8umXZtxm8Wb7xV7Fx8oUS/JK+nZMntLQymztLD03daFWy+XOZXt3kbaptjWVR5W3rTdZPvm7V8qhBV3K30r63fo7li/48NO/s5bu3x21e3W2120+/OPoh/v7wna01BlVlVWjavOqX6+N3Zv20+sn2r26ewr2vd1v3h/14HIA+drXGtqDuoe3FQL1ypqBw4lHbp52P9wU51N3Z56Rn3REXBEceTFz8k/3zsaerT1GOtY3S+mv+w4Tjte2AA15DYMNQobu5oSmjpOhJxobfZoPv6r7a/7TxqerDyleWrTadLp/NOjZ/LODLdIWgbPpp3taV3Y+uhc/Lk75+eeb78QeuHSxcCL59rYbWcueV46edn98okrrCuNV12uNlxzvnb8uvP14+0u7Q03XG803XS72dwxq+P0Le9bZ2/73754h3Pn6t05dzvuxdy735nU2XWff7//QeaD1w9zHo48WvUY+7jwidqTsqe6T6t+s/ytvsul61S3f/e1Z1HPHvXwel7+Lvv9S2/+c8rzsj6Dvpp+h/6TA4EDN1/Me9H7UvJyZLDgH+r/2PHK4tUvf/j8cW0ofqj3tfT16JsNb7Xf7n/n9K51OGL46fus9yMfCj9qfzzwifWp7XPc576RxV/wX8q/Wn5t/hb67fFo1uiohCvljrcCCDrg1FQA3uxH++MEAGg3ASDNm+ivxwWaeBOME/hPPNGDj4sLANWdAEQvBSDsOgDbK9CWFvVPRd8FEVRU7wFgR0fl+JfIUh0dJnyRvdHW5Mno6FsLAPDFAHwtHh0dqR4d/VqNJvsIgJbcib5+TPTRN8Y8IsCdjLivCAZ/l4me/081/n0GYxk4gb/P/wSYVBv5QzmsvgAAAIplWElmTU0AKgAAAAgABAEaAAUAAAABAAAAPgEbAAUAAAABAAAARgEoAAMAAAABAAIAAIdpAAQAAAABAAAATgAAAAAAAACQAAAAAQAAAJAAAAABAAOShgAHAAAAEgAAAHigAgAEAAAAAQAAA/ygAwAEAAAAAQAAA/gAAAAAQVNDSUkAAABTY3JlZW5zaG90iOjpSgAAAAlwSFlzAAAWJQAAFiUBSVIk8AAAAdhpVFh0WE1MOmNvbS5hZG9iZS54bXAAAAAAADx4OnhtcG1ldGEgeG1sbnM6eD0iYWRvYmU6bnM6bWV0YS8iIHg6eG1wdGs9IlhNUCBDb3JlIDUuNC4wIj4KICAgPHJkZjpSREYgeG1sbnM6cmRmPSJodHRwOi8vd3d3LnczLm9yZy8xOTk5LzAyLzIyLXJkZi1zeW50YXgtbnMjIj4KICAgICAgPHJkZjpEZXNjcmlwdGlvbiByZGY6YWJvdXQ9IiIKICAgICAgICAgICAgeG1sbnM6ZXhpZj0iaHR0cDovL25zLmFkb2JlLmNvbS9leGlmLzEuMC8iPgogICAgICAgICA8ZXhpZjpQaXhlbFhEaW1lbnNpb24+MTAyMDwvZXhpZjpQaXhlbFhEaW1lbnNpb24+CiAgICAgICAgIDxleGlmOlVzZXJDb21tZW50PlNjcmVlbnNob3Q8L2V4aWY6VXNlckNvbW1lbnQ+CiAgICAgICAgIDxleGlmOlBpeGVsWURpbWVuc2lvbj4xMDE2PC9leGlmOlBpeGVsWURpbWVuc2lvbj4KICAgICAgPC9yZGY6RGVzY3JpcHRpb24+CiAgIDwvcmRmOlJERj4KPC94OnhtcG1ldGE+Ctn3d54AAAAcaURPVAAAAAIAAAAAAAAB/AAAACgAAAH8AAAB/AAAUi2LtTrUAABAAElEQVR4Aezd2Y8s130f8DPr3Xk3kZcUF4lSBGuj5cSIIinW4hhJ/BIYjqMnx0ACIwEMxH7J35AFgZ8CBHGQlyRPWQAbQfLiBwOkJMuWZMWJFWuJRYkUJZGXInn3bebOTPpXM9XsO6zb3TPT3XXq1KcvRt1d1V11zud3COhbp6p6Kf1+2kkeBAgQIECAAAECBAgQIECAQFECSwJ/UfXUGQIECBAgQIAAAQIECBAgUAkI/AYCAQIECBAgQIAAAQIECBAoUEDgL7CoukSAAAECBAgQIECAAAECBAR+Y4AAAQIECBAgQIAAAQIECBQoIPAXWFRdIkCAAAECBAgQIECAAAECAr8xQIAAAQIECBAgQIAAAQIEChQQ+Assqi4RIECAAAECBAgQIECAAAGB3xggQIAAAQIECBAgQIAAAQIFCgj8BRZVlwgQIECAAAECBAgQIECAgMBvDBAgQIAAAQIECBAgQIAAgQIFBP4Ci6pLBAgQIECAAAECBAgQIEBA4DcGCBAgQIAAAQIECBAgQIBAgQICf4FF1SUCBAgQIECAAAECBAgQICDwGwMECBAgQIAAAQIECBAgQKBAAYG/wKLqEgECBAgQIECAAAECBAgQEPiNAQIECBAgQIAAAQIECBAgUKCAwF9gUXWJAAECBAgQIECAAAECBAgI/MYAAQIECBAgQIAAAQIECBAoUEDgL7CoukSAAAECBAgQIECAAAECBAR+Y4AAAQIECBAgQIAAAQIECBQoIPAXWFRdIkCAAAECBAgQIECAAAECAr8xQIAAAQIECBAgQIAAAQIEChQQ+Assqi4RIECAAAECBAgQIECAAAGB3xggQIAAAQIECBAgQIAAAQIFCgj8BRZVlwgQIECAAAECBAgQIECAgMBvDBAgQIAAAQIECBAgQIAAgQIFBP4Ci6pLBAgQIECAAAECBAgQIEBA4DcGCBAgQIAAAQIECBAgQIBAgQICf4FF1SUCBAgQIECAAAECBAgQICDwGwMECBAgQIAAAQIECBAgQKBAAYG/wKLqEgECBAgQIECAAAECBAgQEPiNAQIECBAgQIAAAQIECBAgUKCAwF9gUXWJAAECBAgQIECAAAECBAgI/MYAAQIECBAgQIAAAQIECBAoUEDgL7CoukSAAAECBAgQIECAAAECBAR+Y4AAAQIECBAgQIAAAQIECBQoIPAXWFRdIkCAAAECBAgQIECAAAECAr8xQIAAAQIECBAgQIAAAQIEChQQ+Assqi4RIECAAAECBAgQIECAAAGB3xggQIAAAQIECBAgQIAAAQIFCgj8BRZVlwgQIECAAAECBAgQIECAgMBvDBAgQIAAAQIECBAgQIAAgQIFBP4Ci6pLBAgQIECAAAECBAgQIEBA4DcGCBAgQIAAAQIECBAgQIBAgQICf4FF1SUCBAgQIECAAAECBAgQICDwGwMECBAgQIAAAQIECBAgQKBAAYG/wKLqEgECBAgQIECAAAECBAgQEPiNAQIECBAgQIAAAQIECBAgUKCAwF9gUXWJAAECBAgQIECAAAECBAgI/MYAAQIECBAgQIAAAQIECBAoUEDgL7CoukSAAAECBAgQIECAAAECBAR+Y4AAAQIECBAgQIAAAQIECBQoIPAXWFRdIkCAAAECBAgQIECAAAECAr8xQIAAAQIECBAgQIAAAQIEChQQ+Assqi4RIECAAAECBAgQIECAAAGB3xggQIAAAQIECBAgQIAAAQIFCgj8BRZVlwgQIECAAAECBAgQIECAgMBvDBAgQIAAAQIECBAgQIAAgQIFBP4Ci6pLBAgQIECAAAECBAgQIEBA4DcGCBAgQIAAAQIECBAgQIBAgQICf4FF1SUCBAgQIECAAAECBAgQICDwGwMECBAgQIAAAQIECBAgQKBAAYG/wKLqEgECBAgQIECAAAECBAgQEPiNAQIECBAgQIAAAQIECBAgUKCAwF9gUXWJAAECBAgQIECAAAECBAgI/MYAAQIECBAgQIAAAQIECBAoUEDgL7CoukSAAAECBAgQIECAAAECBAR+Y4AAAQIECBAgQIAAAQIECBQoIPAXWFRdIkCAAAECBAgQIECAAAECAr8xQIAAAQIECBAgQIAAAQIEChQQ+Assqi4RIECAAAECBAgQIECAAAGB3xggQIAAAQIECBAgQIAAAQIFCgj8BRZVlwgQIECAAAECBAgQIECAgMBvDBAgQIAAAQIECBAgQIAAgQIFBP4Ci6pLBAgQIECAAAECBAgQIEBA4DcGCBAgQIAAAQIECBAgQIBAgQICf4FF1SUCBAgQIECAAAECBAgQICDwGwMECBAgQIAAAQIECBAgQKBAAYG/wKLqEgECBAgQIECAAAECBAgQEPiNAQIECBAgQIAAAQIECBAgUKCAwF9gUXWJAAECBAgQIECAAAECBAgI/MYAAQIECBAgQIAAAQIECBAoUEDgL7CoukSAAAECBAgQIECAAAECBAR+Y4AAAQIECBAgQIAAAQIECBQoIPAXWFRdIkCAAAECBAgQIECAAAECAr8xQIAAAQIECBAgQIAAAQIEChQQ+Assqi4RIECAAAECBAgQIECAAAGB3xggQIAAAQIECBAgQIAAAQIFCgj8BRZVlwgQIECAAAECBAgQIECAgMBvDBAgQIAAAQIECBAgQIAAgQIFBP4Ci6pLBAgQIECAAAECBAgQIEBA4DcGCBAgQIAAAQIECBAgQIBAgQICf4FF1SUCBAgQIECAAAECBAgQICDwGwMECBAgQIAAAQIECBAgQKBAAYG/wKLqEgECBAgQIECAAAECBAgQEPiNAQIECBAgQIAAAQIECBAgUKCAwF9gUXWJAAECBAgQIECAAAECBAgI/MYAAQIECBAgQIAAAQIECBAoUEDgL7CoukSAAAECBAgQIECAAAECBAR+Y4AAAQIECBAgQIAAAQIECBQoIPAXWFRdIkCAAAECBAgQIECAAAECAr8xQIAAAQIECBAgQIAAAQIEChQQ+Assqi4RIECAAAECBAgQIECAAAGB3xggQIAAAQIECBAgQIAAAQIFCgj8BRZVlwgQIECAAAECBAgQIECAgMBvDBAgQIAAAQIECBAgQIAAgQIFBP4Ci6pLBAgQIECAAAECBAgQIEBA4DcGCBAgQIAAAQIECBAgQIBAgQICf4FF1SUCBAgQIECAAAECBAgQICDwGwMECBAgQIAAAQIECBAgQKBAAYG/wKLqEgECBAgQIECAAAECBAgQEPiNAQIECBAgQIAAAQIECBAgUKCAwF9gUXWJAAECBAgQIECAAAECBAgI/MYAAQIECBAgQIAAAQIECBAoUEDgL7CoukSAAAECBAgQIECAAAECBAR+Y4AAAQIECBAgQIAAAQIECBQoIPAXWFRdIkCAAAECBAgQIECAAAECAr8xQIAAAQIECBAgQIAAAQIEChQQ+Assqi4RIECAAAECBAgQIECAAAGB3xggQIAAAQIECBAgQIAAAQIFCgj8BRZVlwgQIECAAAECBAgQIECAgMBvDBAgQIAAAQIECBAgQIAAgQIFBP4Ci6pLBAgQIECAAAECBAgQIEBA4DcGCBAgQIAAAQIECBAgQIBAgQICf4FF1SUCBAgQIECAAAECBAgQICDwGwMECBAgQIAAAQIECBAgQKBAAYG/wKLqEgECBAgQIECAAAECBAgQEPiNAQIECBAgQIAAAQIECBAgUKCAwF9gUXWJAAECBAgQIECAAAECBAgI/MYAAQIECBAgQIAAAQIECBAoUEDgL7CoukSAAAECBAgQIECAAAECBAR+Y4AAAQIECBAgQIAAAQIECBQoIPAXWFRdIkCAAAECBAgQIECAAAECAr8xQIAAAQIECBAgQIAAAQIEChQQ+Assqi4RIECAAAECBAgQIECAAAGB3xggQIAAAQIECBAgQIAAAQIFCgj8BRZVlwgQIECAAAECBAgQIECAgMBvDBAgQIAAAQIECBAgQIAAgQIFBP4Ci6pLBAgQIECAAAECBAgQIEBA4DcGCBAgQIAAAQIECBAgQIBAgQICf4FF1SUCBAgQIECAAAECBAgQICDwGwMECBAgQIAAAQIECBAgQKBAAYG/wKLqEgECBAgQIECAAAECBAgQEPiNAQIECBAgQIAAAQIECBAgUKCAwF9gUXWJAAECBAgQIECAAAECBAgI/MYAAQIECBAgQIAAAQIECBAoUEDgL7CoukSAAAECBAgQIECAAAECBAR+Y4AAAQIECBAgQIAAAQIECBQoIPAXWFRdIkCAAAECBAgQIECAAAECAr8xQIAAAQIECBAgQIAAAQIEChQQ+Assqi4RIECAAAECBAgQIECAAAGB3xggQIAAAQIECBAgQIAAAQIFCgj8BRZVlwgQIECAAAECBAgQIECAgMBvDBAgQIAAAQIECBAgQIAAgQIFBP4Ci6pLBAgQIECAAAECBAgQIEBA4DcGCBAgQIAAAQIECBAgQIBAgQICf4FF1SUCBAgQIECAAAECBAgQICDwGwMECBAgQIAAAQIECBAgQKBAAYG/wKLqEgECBAgQIECAAAECBAgQEPiNAQIECBAgQIAAAQIECBAgUKCAwF9gUXWJAAECBAgQIECAAAECBAgI/MYAAQIECBAgQIAAAQIECBAoUEDgL7CoukSAAAECBAgQIECAAAECBAR+Y4AAAQIECBAgQIAAAQIECBQoIPAXWFRdIkCAAAECBAgQIECAAAECAr8xQIAAAQIECBAgQIAAAQIEChQQ+Assqi4RIECAAAECBAgQIECAAAGB3xggQIAAAQIECBAgQIAAAQIFCgj8BRZVlwgQIECAAAECBAgQIECAgMBvDBAgQIAAAQIECBAgQIAAgQIFBP4Ci6pLBAgQIECAAAECBAgQIEBA4DcGCBAgQIAAAQIECBAgQIBAgQICf4FF1SUCBAgQIECAAAECBAgQICDwGwMECBAgQIAAAQIECBAgQKBAAYG/wKLqEgECBAgQIECAAAECBAgQEPiNAQIECBAgQIAAAQIECBAgUKCAwF9gUXWJAAECBAgQIECAAAECBAgI/MYAAQIECBAgQIAAAQIECBAoUEDgL7CoukSAAAECBAgQIECAAAECBAR+Y4AAAQIECBAgQIAAAQIECBQoIPAXWFRdIkCAAAECBAgQIECAAAECAr8xQIAAAQIECBAgQIAAAQIEChQQ+Assqi4RIECAAAECBAgQIECAAAGB3xggQIAAAQIECBAgQIAAAQIFCgj8BRZVlwgQIECAAAECBAgQIECAgMBvDBAgQIAAAQIECBAgQIAAgQIFBP4Ci6pLBAgQIECAAAECBAgQIEBA4DcGCBAgQIAAAQIECBAgQIBAgQICf4FF1SUCBAgQIECAAAECBAgQICDwGwMECBAgQIAAAQIECBAgQKBAAYG/wKLqEgECBAgQIECAAAECBAgQEPiNAQIECBAgQIAAAQIECBAgUKCAwF9gUXWJAAECBAgQIECAAAECBAgI/MYAAQIECBAgQIAAAQIECBAoUEDgL7CoukSAAAECBAgQIECAAAECBAR+Y4AAAQIECBAgQIAAAQIECBQoIPAXWFRdIkCAAAECBAgQIECAAAECAr8xQIAAAQIECBAgQIAAAQIEChQQ+Assqi4RIECAAAECBAgQIECAAAGB3xggQIAAAQIECBAgQIAAAQIFCgj8BRZVlwgQIECAAAECBAgQIECAgMBvDBAgQIAAAQIECBAgQIAAgQIFBP4Ci6pLBAgQIECAAAECBAgQIEBA4DcGCBAgQIAAAQIECBAgQIBAgQICf4FF1SUCBAgQ6K/AUlqqOj98Xtr3fmT9TtqpPjv6XL0eLB5d1l9NPSdAgAABAt0WEPi7XT+tJ0CAAAECQ4EI+fFveWl59zkNngeBP97Hv+p1PO/9i1C/Pfi3s7P7vL0T7x58H5+pw/9wR14QIECAAAECnRAQ+DtRJo0kQIAAgUUJVGE4QvLg38rSSvVcB+ZhkN4XoN+xfC90VzG7Dt9Tfif2H48I59Vz/X7kufrMYPXws9Wrt7+3G+/fDvhV++t2RODf23YE/fjXFPJHw//up94+G6A+ABDfj8fwffVqb9nIumofg4MJ9XPj/qIVYz7T+J36AEX0Ye91PG/tbFV9qrdXNdL/ECBAgACBHgoI/D0sui4TIECAwMMFIhyvLa2l9aX1dHzleDq2dCytLe++j+dYV/3Vr/c/j6yPbRzkO6tLq7sHGSKc7x10iFBfBfa9oF6H+eogw95nqtd7ob8O8+84GLDvAEEIjAb1wZsH3++tHw31o6H6YeG9CuZ1AN8L4fd37qf429zeTJs7e3/16/r5YcsH6zd2Nqb67sb2Roq/u9t3q+f4XoT/up8Pr7o1BAgQIECgTAGBv8y66hUBAgSKFYggW4fgmIEf/qWR13vLh7P0gwA9WFsF53rWvv5ehOXRdRG6I6ivLw8C//Lx6rkO7vXzQ0P/SNh/4KBALN9/0GDfgYLY72jgj7bXob8K+XEQYPDvgdeDZcODAbF2b+Z+1sVvOhMglkW4rw8CDN8Plg1fR+Af/A0Df4T60YBfv66f90J/hPbqwEC9vH4e/f7ossHy+jt14L+3fW+4rJrxj5n/wb9oT7wffR39GH5m7+yA6jN7nxu+jvf132ALtcusvW2PAAECBAjMSkDgn5Wk7RAgQIDAQgQi8EZYj0B+YvlEOrlyMp1YGTwv7z7HspiZj7Aef8eWj73j9XDZ3ueG7/cC/jB4R7yOUL3vuT7gEMuHofxhgXzfZxq/M/LdOrTHPuIRz9Xrhhn6as1eyK8+M8cK1LPkEXLjMXxfvapOD3hgWf2ZOhQ/7IyAB5YPtlAfQIjnB9aNHGB4YPm+79QHISKY12cVRPiPWf/6OV6Pvh8u33rnZ+5s30l3tnb/bm/frl7Hc3wnDkpEOz0IECBAgECuAgJ/rpXRLgIECBQmUIfmOkzXM9qj7+tZ9+p5MO9erxtdHstipj1CegT9OuxXwX8Q9uN9U9gfDf/HVt55EKD+TszE16fIF1aCXnUnDgrEwYYI5RHO61BfP98dCffDZfsOBMRBgSrsD0L/7a3dsB8HAOJ1rKvPKqhm/eOcgXr2f+9gw+j7+gBEHIRoel21d9BmDwIECBAgMEsBgX+WmrZFgAABAo0CMfscQT1CdQTzUyunqr/TK6d3X6+eqmbo69D+wPPI7H3M4lfX1Q/Cfpwyv/9AQP0+Di7E6/p0/dHX1bKRdfX7+rR+Yb+xhJ1cWIf+aU7fr0713wvt9evqeS/E10E9tlUF9u37VeCvDgrEWQAjBwXiDIDqAEEsH5wdEK/j79bWrQf+bm7dHK6LAxNCfyeHmUYTIEAgawGBP+vyaBwBAgTyEYgQXc+4xyx4vI7QXS+L5/ovAnb9un6uTsEfhPdTy7thfxj6V3dDf4T80dPyR9/XBwDq2fvYVuzDg0BbAnEwIA4CxNkBw7C/L/TXYb9ePxr4I+zfur97AGD0EoH6wEI813+jZwTcHxxoqJfHQYL6dbQnDhh4ECBAgACBUQGBf1TDawIECBBoFIgZ+jiNPoJ3BPUzq2fSI6uPpDMrZ9LpvcAey4cz9vtn8AfvY2a+vtldHAQYHhRYfvtmdTHLHsvrdfXr6nlknVn4xjJZuECB+uyB+oZ/EbwjmA//6jMBRpbXn6lD+vB5EOLjTIH9ZwFUBwVGzgqI9zfvD/4Gzzfu30g3tgZ/g+c4kHBv5151PwGhf4GDwK4IECDQAQGBvwNF0kQCBAjMSiCCe4TlCNzD8D0I3PVMfbV8b/a+/kz9HKfjV6F+EPAj6Efor/4Gr+vZ+neE/sGp+vW6uOY+gvu8by43KyvbIbAIgfrAQczWjwb+prAfZwTsD/vVQYDBAYA4m6D++cL6QMLoGQDx6wixvF5W/1pCHKBwkGARlbYPAgQItCMg8Lfjbq8ECBBYuEAE7bgDfPyufDVDv/JINUtfzdRHeN8X4uswH88xcx+n08csf5xOHwcB9h8cqGfl63Wj76sZemF/4TW3w24I1KE/AvkDp+83vK/DfBXeR0J8BP4q/A/OAKhm/vdm/+uzAKozAgZnA1zfup6u33/7Ly43EPq7MU60kgABAocREPgPo+Y7BAgQyECgnq2PMF3P1se19dXr+nnv99/r9RHW47T8RwZhP4L82dWzw6D/juBfHwAYPMdp+2boMyi6JhDYJ1AfLIjZ/XecAVCH/pHT/+uwf23rWhX846yCuA9B/YsDcQZAPfvf9Lo+KOGsgH2F8JYAAQKZCgj8mRZGswgQIDBJIIJ+fV19BPfh39rI673lEeYj5MdznGIfwb8+OFCfsr+6/9T+uCHf3vX18ZnYn9PxJ1XFegKLF4jwXf+iQDXzP3Izv/pU/uHywf0CqiA/+EyE/PrMgDgQcO3+tepv9HW9rH6OewjEWQGxPQ8CBAgQyF9A4M+/RlpIgECPBCJQ16fKx6x8BPoI5sPnQVCvX8c19ScGvzsfs+/DsD8I+BHqR9/Xr+sZ/Piem971aFDpKoGHCOzs7FTX/UeIj1P+61Afs//D15sPHgSobxIYoT8OHNRnBsRzfQ+B4fNgWf2TiM4IeEgRLCZAgMCcBQT+OQPbPAECBKYViLAfs+hxyn2E9HOr59L51fPp/Nr53deD53hd/Q2WR4CPsB+hv56tj4ME9Ux906n9ZuqnrYbPEeiHQP3zgu84fX/01P6RewXc3dr9NYG4N8CVzSvp6v2r1fOV+1eGz1c3d5fF863tW9WBgbhPgAcBAgQILF5A4F+8uT0SINAzgTrIR9iOU+ljhj6uh69e772P17Es/uIGeRH2q8DfEPbr5XGKfhwciLDvQYAAgUUIxKn8cc1/nBUwGvarkF+H/jgQEKF/8D5uJBiXDcTPDsbMf30mQPUcZwUM/uInBePSgzgoED9z6EGAAAECsxMQ+GdnaUsECBBoFIigH0E+7oJ/ce1iurB2oXq+uP7263oWP2b2I8TXBwbiuTq1Pw4MjLyuZu8Hs/lxRkCcnu9BgACBRQjEqfn1LwlESB+evj8I8/X7CPH16wj7cTZAPev/1v230lubb6U3N99Mb23sPsfruITg1tbu2QCL6Id9ECBAoC8CAn9fKq2fBAjMXGB05r6ena9m6gc/e1cF9r2QHqfcx43yIswPw/5I8I9l8Xd2cLO9mLWPbcXP58U/DwIECHRZIMJ/BPkI9HEJQIT9OvBXoT/C/8ab1dkC8ZOBcYAgDiLUvxxQnwFQPQ/OLIgDCXGWgTMBujwqtJ0AgUUKCPyL1LYvAgSKEqhn7uNa+netvSu9a33wN3iOWfxqJn99dyY/TsGPz9S/Yx+BvjogsPeb9vXr+jp8N9QrapjoDIFeC+y/R0B9Wn8V6OtT/AcHBeImgPWBgeEBgcGBgDgoEH9vbLyR3th8ozpTID4X2/EgQIAAgckCAv9kI58gQKCHAjG7PrzmfjBTX83gD2bu65n8eI4AX19vPxr24/XoTH7M7McMv2vteziQdJkAgakE6nsDxK8ADGf+98J+nAEQYT9Cf1wSED8bGKG/Pgsgnod/g/sBxNkA1VkAO9uDCxB2ptq/DxEgQKBUAYG/1MrqFwEChxaoT9U/uXwyxXX2MVv/6Pqj6dG1R6tZ/HgdM/n1afgR+kdP5R+dwY/Xcb29a+0PXQ5fJECgBwKj9waIwD56Kn99On+E+tvbt6sbBsblAT/Z/Mlw5v8nG7uv62Vxs8D45QG/DtCDwaOLBAiMFRD4x/JYSYBAiQJ1oI8Z/PhN+nrWvn4dM/dx3X1cTx+BP2bsh2F/JPTHqfpnVs9U3y/RSZ8IECCQm0CE+LjOP2b5q5A/mPnfH/bjTID4BYE4OHB763Y1+x+/EhAHDOrnOIjgVwFyq672ECAwDwGBfx6qtkmAQNYCo9feP7b+WKr/Lq1fGr6OkH925Ww6vnJ8eFCgmsUfzNjXBwjqO+W7S37W5dY4AgQKEoib9VW/ErC9+/OA8ZN+w9P5R07tj0sD4l4AMeP/+r3X0+WNy+n1jb3nwfv4ycC4LCAOIHgQIECgZAGBv+Tq6huBngrUM/gR0GPWfvQvwnr87F38RF78FF4d9uO5CvzHHqtO349T9uO6ezfQ6+kg0m0CBDorsLOzU90EMH4KMK79r4L+vZHAPwj+cZ+AOEsgTv2vZ/5j9r/627q7+3ODg4MBcdNBDwIECHRZQODvcvW0nQCBRoGYwY9T8iPQP3HsifT4+uPp8WOP7wb6QbCPa/BjXYT+mMGPgwD16fz1cxwsiO3EwQMPAgQIEOiWQJwFUN0LYHA3/+o0/q23T+eP9/UvAkTwrw8IvLbxWnrt3mvp1XuvVgcEbmzdqA4GdKvnWkuAAIEHBQT+Bz28I0CgAwL1DH6cUl+fcj86ix830YufwYub7UXQH/4Ngn/M5MfyuP4+gn783r0HAQIECPRLIA4GROiPm/9F4K/DfgT+eB33BYjT/m/ev1mdLTA6+x+v4/vVLwEMLjHwIECAQM4CAn/O1dE2AgQaBepr8OPn7uoZ/Po5wn2E+riDftxQrzoQsHcdfn1QIGbv6zvnN+7AQgIECBAoWiBO1Y/AHtfw7w/zo2cAxA0AY8Y/DgJUz3tnAMT9AeKAwcbgDAIPAgQI5Cwg8OdcHW0j0GOBmMWvg30d2uM0/fg7tXpq9w76ezP4ddivngeBP66/P7s2uOHe4Pp9DwIECBAgcFCBze3N3TMABrP8EfSHYX9jEP4HoT/OAIhfAqjPALizfaf69YD64EEcSIh7CcQ/DwIECLQpIPC3qW/fBAg0CkTYj1Pt49T8+Dm8mLV/97F3pyePPVk917P4McMfP6FXz9zXr83gN7JaSIAAAQJTCsQZANV9APbuARA/BViH+XiOXwGorv8f3PH/R/d+lH5878fVc31g4PrW9d1T/t30b0pxHyNAYF4CAv+8ZG2XAIGJAvW1+HEtfTV7PwjvcQf9k8uDv8FzXGcfd86PmfsI/FXoP/5ktezi+sXqc67Bn8jsAwQIECAwY4G4s/+1+9eqmf4f390N+xH6q7MBBmcBxCn/Mft/e+t2ur19u5r9j+f4Xsz+u/v/jAticwQIPFRA4H8ojRUECMxboL6bftxE76njT1V/Tx9/ejiTH9fhn149Xf08XhwQiJn80Vn8+L4HAQIECBBYtEAE9gjuEeBj9r86pX/vtP4I+XEzwLjuPw4G/PDeD9Mrd19JP7z7w/T65uvVzwHG9zwIECCwCAGBfxHK9kGg5wIrSytpfWm9uqN+zN5HaI/nCPMxix832dsf+GNWP07Zj5vrLS8t91xQ9wkQIECgCwJxzX4cDIhT/uPu/zHrH0G/Dv2X712uLgW4fv/6AzP/cdAgDgLEjQRd99+FSmsjge4ICPzdqZWWEuisQMzOxyz+pWOX0jPHn0lPHXsqxUx+hPoI++fWzu2eyj84jb8+tT+eI+zHKfvxz4MAAQIECHRBIAL7/e37w2v+Y8Y/zgCI5wj6cbp/3PgvDgS8cu+VavY/DgzEwYCbWzerwC/0d6HS2kigGwICfzfqpJUEOiFQ31U/wnpcg39q5dTwWvwI9nENfgT9+u/x9cdTXIsfn3ctfidKrJEECBAgcASBmMWP0B93+a9P84/n+sZ/9c/9xU/+1df+x8GC+NUABwGOAO+rBHosIPD3uPi6TmCWAjELHwG/DvbvOf6e9J4T76lm9OOu+nE9/iOrj+zO5O+d1h/X5McN++KUfw8CBAgQIFC6wOi1/6Mz/zGzf23zWnUZwA/u/iDVf3EWQMz+xw0C41cDhP7SR4j+EZi9gMA/e1NbJFC8wOhMfoT8+Iuf0ItQH+E+rsePwB+n70fof3T90Wp9/FyeBwECBAgQIPCgQFy7H7P/McMfM/5V4L/zg92zAAY3/Xtj443qdP84MFDN/sdlAoPr/uPGgQ4CPGjpHQECDwoI/A96eEeAwASB0Zn8J489mZ498Wx674n3Vn8R9uMmfGdWz+yezr/383oxix8HCdx8bwKu1QQIECDQS4EI7TGDv7G9MbzeP84AiIBf3wAwDgK8dOel6i9e/+juj9K1rWvVTQKF/l4OG50mMJWAwD8Vkw8R6KdAfXf9uKt+PYsfzzGTX1+PXwf+mNF/1/q7qjvwx832PAgQIECAAIGjCdSXAMTP/MXM/8t3X64C/8t3Xq7ex70A4qBA/Rez/ne371Yz/0fbs28TIFCKgMBfSiX1g8AcBOJmenW4f//J96f3nXhfNaMfd9c/v3a++tm8OABQ36AvTtmPgwTLg38eBAgQIECAwNEEYuZ+Z2cnbexsVHf5j1n/OKX/xtaNdH3zerq8cTlF+P/+3e+nF2+/WB0EiF8AiPVm/Y9m79sEShEQ+EuppH4QOIJABPQI6nHqfVyLf3r1dDWjH2H/0vql6q767z+xG/jj9P24MV+E/LVlM/lHYPdVAgQIECBwKIE4/T/u3B/X/Nez/i/eebEK/3Gjvzc2377m/+b9m8NZ//ieBwEC/RIQ+PtVb70l0CgQp+BHgI8gH8E+ZvPjL26+F8vOr56vDgTEbH781XfWd01+I6eFBAgQIEBgrgIxex+n+8c1//HzfTHrH39xp/84CBA/8/e9299LcRDgu7e/m16992q6ev9qFfzn2jAbJ0AgOwGBP7uSaBCB+QvUAT/Ce9xg7+zq2XRx7WKKm/BVYX8v9Md1+ufWzqX4+TwPAgQIECBAIG+BmPWP0/5f33g9fe/OIPAPTvP/7p3vVqf6x+n/cS+AuAlgHByI6/7jgEF12cDgfz0IEChTQOAvs656ReChAnGX/Qj48ZN5z558Nn3g5Aeqa/PjfczmxwGAOK0/DgbEzfri4ECc7u9BgAABAgQI5C0Qs/5x2n78xF8E+jrYv7n5ZnVX/7je/y9u/0U18x9nAMTy+EnA7cE/DwIEyhQQ+Musq14ReEAgbqYXIf7Myplqxj5m7uMGfH/p5F+qAn9clx+z+4+sPpKWluKQwNID3/eGAAECBAgQ6K5ABP+4o39c3x+Bv/q79RfVqf9xCUCc7n9963p1oCBuEuiGf92ttZYT2C8g8O8X8Z5AYQIR3uPmexHwP3jqg+mnz/x0FfQfP/Z4dRr/cDZ/cEf+1eVVYb+w+usOAQIECBCIWfyY9Y+f7YuZ/6ubV6sb+71056X0f2/+3/TNW99M37r1repSgGrGf3CmgAcBAmUICPxl1FEvCDwgEDfTW11arWb0H117NL3nxHvSh099OH30zEfTT5/+6fTMiWeq0/rj5nseBAgQIECAQL8EItTf3bqbfnzvx+nPb/55Ffq/cfMb1XX/8bN+MeMfBwjicx4ECHRbQODvdv20nkCjQJzCH6fvxyn7nz736fSxMx+rbsYXs/rnVs/t/qTe4Np8d9lv5LOQAAECBAgULRCn7Me1/jHjf/3+9fSTzZ9U1/jHbP8XrnwhfevmYLZ/8/XqHgBFQ+gcgR4ICPw9KLIu9kcgZvVPDE7Nf3T90fS+k+9LP3PmZ9Jnzn8mfeTUR9KlY5eqG/H1R0NPCRAgQIAAgWkEYjY/7t4f1/Z/8coX0/+6/r/St29/uzoIcGPrRjXbP812fIYAgfwEBP78aqJFBA4tELP6Txx7ogr6f/Pi36xm9uP9+bXzKU7fjwMCHgQIECBAgACBUYG4u//mzmYV+uPmfnE9fwT/r1//evX6jc03Rj/uNQECHRIQ+DtULE0l8DCB+Om8kysn01PHn0ofO/2x9Ilzn0h/48LfqE7pj3VO3X+YnOUECBAgQIBALVDdn39wl/4f3ftR+uq1r6Y/vvrH6Y+u/VH67u3vpmv3r6W723frj3omQKAjAgJ/RwqlmQTGCZxdPZuePv50+tlHfjb94rt+sZrhj5n9mPH3M3vj5KwjQIAAAQIERgUi9Me1/fFzfd++9e30wlsvpK9c/0r6sxt/li5vXB79qNcECHRAQODvQJE0kcDDBFaWVqpT9Z85/kz6+CMfT3/93F9PP3/h59OzJ59NsS5+ks+DAAECBAgQIHAYgVfvvZr+9Pqfpi9f/XL6g7f+IH3n9neqG/ltbG8cZnO+Q4BACwICfwvodklgVgJxGv/FtYvVzP6vPPYr6eNnP57iTvxnVgcz+8L+rJhthwABAgQI9FIgTuG/snmlmt3/nz/5n+mPr/1xevHOi9WyXoLoNIEOCgj8HSyaJhOIMB/X5T++/nh67sxz1U/v/Z1H/0764KkPVjP7rtk3RggQIECAAIFZCbx85+Xq5/riRn5fuvql9NKdl9LGzkb1036z2oftECAwHwGBfz6utkpgrgLVqfxLx6qw//cu/b30c+d+rrpB34W1C67Zn6u8jRMgQIAAgf4J3Ny6mS7fu1zN8P/X1/5r+pPrf1LN8t/ZvtM/DD0m0DEBgb9jBdNcAiFweuV09fN7nzr3qfT3n/j71Sn9p1ZOpfXldUAECBAgQIAAgZkKxM/2be1spT+/+efpd1//3Wq2/5u3vpniJ/w8CBDIW0Dgz7s+WkegUSB+fu+TZz+ZPnP+M+kXLv5Cev+J96fVpVU/v9eoZSEBAgQIECBwFIH65/pe23gt/Z/r/ye9cOWF9N9/8t+ru/gfZbu+S4DA/AUE/vkb2wOBmQnEtflrS2vpo6c/mn75sV9Onz7/6fShUx9Kj64/OrN92BABAgQIECBAoEng1tat9Pq919MfXv3D9J9e/U/pa9e+Vt21f3Nns+njlhEgkIGAwJ9BETSBwLQCx5aPpbOrZ6vZ/X/45D9Mnzj7iXR27Ww6vnx82k34HAECBAgQIEDgUAL3d+6ne9v30v++8b/Tf371Pw9v4Hf1/tVDbc+XCBCYv4DAP39jeyAwM4Hzq+fTsyeeTZ89/9n0a+/+tfSxMx9zk76Z6doQAQIECBAgMI3Ai7dfTL//5u+nF956If3RtT9Kr9x9ZZqv+QwBAi0ICPwtoNslgcMKPHP8meon+D574bPpFy78Qnr25LODH+hbOuzmfI8AAQIECBAgcGCBuFnfN29+Mz1/5fn03y7/t+pmfgfeiC8QILAQAYF/Icx2QuBoAhHq49+HT384ff7S56sZ/njt2v2jufo2AQIECBAgcHCBuJY/Qv8Xr3wx/fsf/fvqWv64jj/u5O9BgEBeAgJ/XvXQGgKNAstpOa0sraSPn/14+o2nfiN95sJn0sW1i+nkysnGz1tIgAABAgQIEJiXQH0t/1eufSX9ziu/U13Lf2XzSrq7fXdeu7RdAgQOKSDwHxLO1wgsUmB9aT2dXjld3ZX/N5/5zfSpc59K68vr1UGARbbDvggQIECAAAECtUDcvO8//Og/VKf2v3zn5eTmfbWMZwL5CAj8+dRCSwg8VODMypn05LEnU1y7/+tP/nr6K4/8lRQ/0ef6/YeSWUGAAAECBAjMWeA7t76T/sdP/kd1876v3/h6evXeq3Peo80TIHBQAYH/oGI+T6AFgbhW/8OnPpw+d/5z6fOPfz595PRHWmiFXRIgQIAAAQIE3hb4wd0fpC9d+VJ6/q3n0x+89Qfpe3e+9/ZKrwgQyEJA4M+iDBpBYLzAU8efSp88+8n0uQufS3/74t9O7z/5/vFfsJYAAQIECBAgMGeByxuX0zdufKM6pf93L/9u+tatb815jzZPgMBBBQT+g4r5PIEWBCLg/62Lf6ua4f/kuU+mp48/3UIr7JIAAQIECBAg8LZAXLP/0p2Xqhn+//jj/5jimn4PAgTyEhD486qH1hBoFPjQqQ+lv3vp71aB/7kzz6VL65caP2chAQIECBAgQGBRAre3bqc3Nt+oAv+/eeXfpK9e++qidm0/BAhMKSDwTwnlYwTaFHju9HPpV5/41eqU/g+c/EC6sHahzebYNwECBAgQIEAgbWxvpFtbt6rA/9sv/3b68tUvUyFAIDMBgT+zgmgOgSaBnznzM+kfvPsfVIH/PSfek86tnmv6mGUECBAgQIAAgYUJbO1spXvb96rA/y++/y/Sl65+aWH7tiMCBKYTEPinc/IpAq0KxM/w/aMn/1EV+OPn+c6snmm1PXZOgAABAgQIENje2U4R+l+48kL6Z9/7Z+kLV76Qdvb+0SFAIA8BgT+POmgFgbECf/WRv5p+4+nfqAL/Y+uPpVMrp8Z+3koCBAgQIECAwLwFqnC/s5O+eOWLVeCP4H9/537aHvzzIEAgDwGBP486aAWBsQIfP/vx9E+e/idV4L+4djGdXDk59vNWEiBAgAABAgQWJRCB/59/759XP8+3ubNZzfovat/2Q4DAeAGBf7yPtQSyEPhrZ/9a+s1nfrO6S3/csO/Eyoks2qURBAgQIECAAIEvXflSimv4n7/yfHVNf5zm70GAQB4CAn8eddAKAmMFIvD/1jO/VQX+82vnBf6xWlYSIECAAAECixSIwP8vv/8vh4E/Tuv3IEAgDwGBP486aAWBsQIC/1geKwkQIECAAIEWBQT+FvHtmsAEAYF/ApDVBHIQEPhzqII2ECBAgAABAk0CAn+TimUE8hAQ+POog1YQGCsg8I/lsZIAAQIECBBoUUDgbxHfrglMEBD4JwBZTSAHAYE/hypoAwECBAgQINAkIPA3qVhGIA8BgT+POmgFgbECAv9YHisJECBAgACBFgUE/hbx7ZrABAGBfwKQ1QRyEBD4c6iCNhAgQIAAAQJNAgJ/k4plBPIQEPjzqINWEBgrIPCP5bGSAAECBAgQaFFA4G8R364JTBAQ+CcAWU0gBwGBP4cqaAMBAgQIECDQJCDwN6lYRiAPAYE/jzpoBYGxAgL/WB4rCRAgQIAAgRYFBP4W8e2awAQBgX8CkNUEchAQ+HOogjYQIECAAAECTQICf5OKZQTyEBD486iDVhAYKyDwj+WxkgABAgQIEGhRQOBvEd+uCUwQEPgnAFlNIAcBgT+HKmgDAQIECBAg0CQg8DepWEYgDwGBP486aAWBsQIC/1geKwkQIECAAIEWBQT+FvHtmsAEAYF/ApDVBHIQEPhzqII2ECBAgAABAk0CAn+TimUE8hAQ+POog1YQGCsg8I/lsZIAAQIECBBoUUDgbxHfrglMEBD4JwBZTSAHAYE/hypoAwECBAgQINAkIPA3qVhGIA8BgT+POmgFgbECAv9YHisJECBAgACBFgUE/hbx7ZrABAGBfwKQ1QRyEBD4c6iCNhAgQIAAAQJNAgJ/k4plBPIQEPjzqINWEBgrIPCP5bGSAAECBAgQaFFA4G8R364JTBAQ+CcAWU0gBwGBP4cqaAMBAgQIECDQJCDwN6lYRiAPAYE/jzpoBYGxAgL/WB4rCRAgQIAAgRYFBP4W8e2awAQBgX8CkNUEchAQ+HOogjYQIECAAAECTQICf5OKZQTyEBD486iDVhAYKyDwj+WxkgABAgQIEGhRQOBvEd+uCUwQEPgnAFlNIAcBgT+HKmgDAQIECBAg0CQg8DepWEYgDwGBP486aAWBsQIC/1geKwkQIECAAIEWBQT+FvHtmsAEAYF/ApDVBHIQEPhzqII2ECBAgAABAk0CAn+TimUE8hAQ+POog1YQGCsg8I/lsZIAAQIECBBoUUDgbxHfrglMEBD4JwBZTSAHAYE/hypoAwECBAgQINAkIPA3qVhGIA8BgT+POmgFgbECAv9YHisJECBAgACBFgUE/hbx7ZrABAGBfwKQ1QRyEBD4c6iCNhAgQIAAAQJNAgJ/k4plBPIQEPjzqINWEBgrIPCP5bGSAAECBAgQaFFA4G8R364JTBAQ+CcAWU0gBwGBP4cqaAMBAgQIECDQJCDwN6lYRiAPAYE/jzpoBYGxAgL/WB4rCRAgQIAAgRYFBP4W8e2awAQBgX8CkNUEchAQ+HOogjYQIECAAAECTQICf5OKZQTyEBD486iDVhAYKyDwj+WxkgABAgQIEGhRQOBvEd+uCUwQEPgnAFlNIAcBgT+HKmgDAQIECBAg0CQg8DepWEYgDwGBP486aAWBsQIC/1geKwkQIECAAIEWBQT+FvHtmsAEAYF/ApDVBHIQEPhzqII2ECBAgAABAk0CAn+TimUE8hAQ+POog1YQGCsg8I/lsZIAAQIECBBoUUDgbxHfrglMEBD4JwBZTSAHAYE/hypoAwECBAgQINAkIPA3qVhGIA8BgT+POmgFgbECAv9YHisJECBAgACBFgUE/hbx7ZrABAGBfwKQ1QRyEBD4c6iCNhAgQIAAAQJNAgJ/k4plBPIQEPjzqINWEBgrIPCP5bGSAAECBAgQaFFA4G8R364JTBAQ+CcAWU0gBwGBP4cqaAMBAgQIECDQJCDwN6lYRiAPAYE/jzpoBYGxAgL/WB4rCRAgQIAAgRYFBP4W8e2awAQBgX8CkNUEchAQ+HOogjYQIECAAAECTQICf5OKZQTyEBD486iDVhAYKyDwj+WxkgABAgQIEGhRQOBvEd+uCUwQEPgnAFlNIAcBgT+HKmgDAQIECBAg0CQg8DepWEYgDwGBP486aAWBsQIC/1geKwkQIECAAIEWBQT+FvHtmsAEAYF/ApDVBHIQEPhzqII2ECBAgAABAk0CAn+TimUE8hAQ+POog1YQGCsg8I/lsZIAAQIECBBoUUDgbxHfrglMEBD4JwBZTSAHAYE/hypoAwECBAgQINAkIPA3qVhGIA8BgT+POmgFgbECAv9YHisJECBAgACBFgUE/hbx7ZrABAGBfwKQ1QRyEBD4c6iCNhAgQIAAAQJNAgJ/k4plBPIQEPjzqINWEBgrIPCP5bGSAAECBAgQaFFA4G8R364JTBAQ+CcAWU0gBwGBP4cqaAMBAgQIECDQJCDwN6lYRiAPAYE/jzpoBYGxAgL/WB4rCRAgQIAAgRYFBP4W8e2awAQBgX8CkNUEchAQ+HOogjYQIECAAAECTQICf5OKZQTyEBD486iDVhAYKyDwj+WxkgABAgQIEGhRQOBvEd+uCUwQEPgnAFlNIAcBgT+HKmgDAQIECBAg0CQg8DepWEYgDwGBP486aAWBsQIC/1geKwkQIECAAIEWBQT+FvHtmsAEAYF/ApDVBHIQEPhzqII2ECBAgAABAk0CAn+TimUE8hAQ+POog1YQGCsg8I/lsZIAAQIECBBoUUDgbxHfrglMEBD4JwBZTSAHAYE/hypoAwECBAgQINAkIPA3qVhGIA8BgT+POmgFgbECAv9YHisJECBAgACBFgUE/hbx7ZrABAGBfwKQ1QRyEBD4c6iCNhAgQIAAAQJNAgJ/k4plBPIQEPjzqINWEBgrIPCP5bGSAAECBAgQaFFA4G8R364JTBAQ+CcAWU0gBwGBP4cqaAMBAgQIECDQJCDwN6lYRiAPAYE/jzpoBYGxAgL/WB4rCRAgQIAAgRYFBP4W8e2awAQBgX8CkNUEchAQ+HOogjYQIECAAAECTQICf5OKZQTyEBD486iDVhAYKyDwj+WxkgABAgQIEGhRQOBvEd+uCUwQEPgnAFlNIAcBgT+HKmgDAQIECBAg0CQg8DepWEYgDwGBP486aAWBsQIC/1geKwkQIECAAIEWBQT+FvHtmsAEAYF/ApDVBHIQEPhzqII2ECBAgAABAk0CAn+TimUE8hAQ+POog1YQGCsg8I/lsZIAAQIECBBoUUDgbxHfrglMEBD4JwBZTSAHAYE/hypoAwECBAgQINAkIPA3qVhGIA8BgT+POmgFgbECAv9YHisJECBAgACBFgUE/hbx7ZrABAGBfwKQ1QRyEBD4c6iCNixaYGtnK23ubKY7W3fStfvX0q2tW+ne9r1qWSzf3tlOO4N/uT2W03JaXVpNa8tr6djysXRy+WQ6s3omnVo5Vb2PdR4ECBAoSUDgL6ma+lKagMBfWkX1p0gBgb/IsurUBIG723eroP/K3VfSN25+I71056X0xsYb6cr9K+n6/etV+M8x8K8vrVfh/tzauXRx7WJ65vgz6YOnPpjee+K96dL6pWrdhK5bTYAAgU4JCPydKpfG9kxA4O9ZwXW3mwICfzfrptWHE9jY3kg3tm6kyxuX0/fvfD99+9a3q8D//dvfT29sDgL/ZuaBf3kv8K/uBf4Tz6QPnfpQ+qlTP5U+cPID6cljT6bza+fTieUThwPyLQIECGQmIPBnVhDNITAiIPCPYHhJIFcBgT/XymjXPATe3HwzfefWd9Kf3vjT9IdX/zD9v9v/L7218Va6uXWzmtWPAwL3d+6nOOU/x8fy0t4p/UtraX0v/D+y+kh69sSz6Wcf+dnh37uPvTvH5msTAQIEDiwg8B+YzBcILExA4F8YtR0ROLyAwH94O9/sjkAE+LhG/8U7L6bn33o+ffnql9NXrn8lxSn9sW5nJ7/r9afVXVpaSo+tP5Y+evqj6VPnPpV+8eIvVrP+cV1/HBTwIECAQJcFBP4uV0/bSxcQ+EuvsP4VISDwF1FGnZggcHvrdnXK/levfTX9l9f+S/ra9a+lNzfeTLe2b3U67NfdPr58PMVM/8fOfCz90mO/lD5x9hPpfSfeV53eX3/GMwECBLooIPB3sWra3BcBgb8vldbPTgsI/J0un8ZPKfD6xuvVtfrPX3k+/d7l30vfuvWtKujneGO+KbvU+LG4ed/PX/j59Nnzn63+4r0HAQIEuiwg8He5etpeuoDAX3qF9a8IAYG/iDLqxASBuDnf773+eykC/5/d+LN0+d7lLH92b0I3Jq6OWf6njj+VPnf+c+nXn/z19Jcf+ctpafDPgwABAl0VEPi7Wjnt7oOAwN+HKutj5wUE/s6XUAcmCMQs/teufS39zg9/J73w1gvVHfpvbd2a8K1url5dWk3Hlo+lT5//dPqn7/2n6efO/VxaG9zgb2VppZsd0moCBHovIPD3fggAyFhA4M+4OJpGoBYQ+GsJzyUKRNjf3tmu7sj/2y/9dnrhygvpztadtLmzWWJ3q9n8CPefOPeJ9FvP/Fb6zPnPpLOrZ1Nc4+9BgACBLgoI/F2smjb3RUDg70ul9bPTAgJ/p8un8RME4if27m7fTV+48oX0r176Vyn+j2McACjt2v39DPETff/46X9cndr/xLEn0pmVM/s/4j0BAgQ6ISDwd6JMGtlTAYG/p4XX7W4JCPzdqpfWHkzgzvaddGXzSjWz/69/8K/TV65+pfiwH0LPnXku/eoTv1oF/g+c/EC6sHbhYHA+TYAAgUwEBP5MCqEZBBoEBP4GFIsI5CYg8OdWEe2ZpUBcq39543J6/q3n07995d+mP7n+J7PcfLbb+vDpD6fPX/p8+tyFz6WPnPpIenT90WzbqmEECBAYJyDwj9OxjkC7AgJ/u/72TmAqAYF/KiYf6qjAza2b6bV7r1V35/93r/y7XgX+X7n0K9UM/0dPfzQ9tv5YRyuo2QQI9F1A4O/7CND/nAUE/pyro20E9gQEfkOhZIEbWzfSq/derU7pj8D/9etfL7m7w7596NSHUgT+z174bHru9HPp0vql4TovCBAg0CUBgb9L1dLWvgkI/H2ruP52UkDg72TZNHpKAYFf4J9yqPgYAQKZCgj8mRZGswgMBAR+w4BABwQE/g4USRMPLSDwC/yHHjy+SIBAFgICfxZl0AgCjQICfyOLhQTyEhD486qH1sxWQOAX+Gc7omyNAIFFCwj8ixa3PwLTCwj801v5JIHWBAT+1ujteAECAr/Av4BhZhcECMxRQOCfI65NEziigMB/REBfJ7AIAYF/Ecr20ZaAwC/wtzX27JcAgdkICPyzcbQVAvMQEPjnoWqbBGYsIPDPGNTmshIQ+AX+rAakxhAgcGABgf/AZL5AYGECAv/CqO2IwOEFBP7D2/lm/gICv8Cf/yjVQgIExgkI/ON0rCPQroDA366/vROYSkDgn4rJhzoqIPAL/B0duppNgMCegMBvKBDIV0Dgz7c2WkZgKCDwDym8KFBA4Bf4CxzWukSgVwICf6/KrbMdExD4O1Ywze2ngMDfz7r3pdcCv8Dfl7GunwRKFRD4S62sfpUgIPCXfGbz9QAAEe1JREFUUEV9KF5A4C++xL3uoMAv8Pf6PwCdJ1CAgMBfQBF1oVgBgb/Y0upYSQICf0nV1Jf9AgK/wL9/THhPgEC3BAT+btVLa/slIPD3q95621EBgb+jhdPsqQQEfoF/qoHiQwQIZCsg8GdbGg0jkAR+g4BABwQE/g4USRMPLSDwC/yHHjy+SIBAFgICfxZl0AgCjQICfyOLhQTyEhD486qH1sxWQOAX+Gc7omyNAIFFCwj8ixa3PwLTCwj801v5JIHWBAT+1ujteAECAr/Av4BhZhcECMxRQOCfI65NEziigMB/REBfJ7AIAYF/Ecr20ZaAwC/wtzX27JcAgdkICPyzcbQVAvMQEPjnoWqbBGYsIPDPGNTmshIQ+AX+rAakxhAgcGABgf/AZL5AYGECAv/CqO2IwOEFBP7D2/lm/gICv8Cf/yjVQgIExgkI/ON0rCPQroDA366/vROYSkDgn4rJhzoqIPAL/B0duppNgMCegMBvKBDIV0Dgz7c2WkZgKCDwDym8KFBA4Bf4CxzWukSgVwICf6/KrbMdExD4O1Ywze2ngMDfz7r3pdcCv8Dfl7GunwRKFRD4S62sfpUgIPCXUEV9KF5A4C++xL3uoMAv8Pf6PwCdJ1CAgMBfQBF1oVgBgb/Y0upYSQICf0nV1Jf9AgK/wL9/THhPgEC3BAT+btVLa/slIPD3q95621EBgb+jhdPsqQQEfoF/qoHiQwQIZCsg8GdbGg0jkAR+g4BABwQE/g4USRMPLSDwC/yHHjy+SIBAFgICfxZl0AgCjQICfyOLhQTyEhD486qH1sxWQOAX+Gc7omyNAIFFCwj8ixa3PwLTCwj801v5JIHWBAT+1ujteAECAr/Av4BhZhcECMxRQOCfI65NEziigMB/REBfJ7AIAYF/Ecr20ZaAwC/wtzX27JcAgdkICPyzcbQVAvMQEPjnoWqbBGYsIPDPGNTmshIQ+AX+rAakxhAgcGABgf/AZL5AYGECAv/CqO2IwOEFBP7D2/lm/gICv8Cf/yjVQgIExgkI/ON0rCPQroDA366/vROYSkDgn4rJhzoqIPAL/B0duppNgMCegMBvKBDIV0Dgz7c2WkZgKCDwDym8KFBA4Bf4CxzWukSgVwICf6/KrbMdExD4O1Ywze2ngMDfz7r3pdcCv8Dfl7GunwRKFRD4S62sfpUgIPCXUEV9KF5A4C++xL3uoMAv8Pf6PwCdJ1CAgMBfQBF1oVgBgb/Y0upYSQICf0nV1Jf9AgK/wL9/THhPgEC3BAT+btVLa/slIPD3q95621EBgb+jhdPsqQQEfoF/qoHiQwQIZCsg8GdbGg0jkAR+g4BABwQE/g4USRMPLSDwC/yHHjy+SIBAFgICfxZl0AgCjQICfyOLhQTyEhD486qH1sxWQOAX+Gc7omyNAIFFCwj8ixa3PwLTCwj801v5JIHWBAT+1ujteAECAr/Av4BhZhcECMxRQOCfI65NEziigMB/REBfJ7AIAYF/Ecr20ZaAwC/wtzX27JcAgdkICPyzcbQVAvMQEPjnoWqbBGYsIPDPGNTmshIQ+AX+rAakxhAgcGABgf/AZL5AYGECAv/CqO2IwOEFBP7D2/lm/gICv8Cf/yjVQgIExgkI/ON0rCPQroDA366/vROYSkDgn4rJhzoqIPAL/B0duppNgMCegMBvKBDIV0Dgz7c2WkZgKCDwDym8KFBA4Bf4CxzWukSgVwICf6/KrbMdExD4O1Ywze2ngMDfz7r3pdcCv8Dfl7GunwRKFRD4S62sfpUgIPCXUEV9KF5A4C++xL3uoMAv8Pf6PwCdJ1CAgMBfQBF1oVgBgb/Y0upYSQICf0nV1Jf9AgK/wL9/THhPgEC3BAT+btVLa/slIPD3q95621EBgb+jhdPsqQQEfoF/qoHiQwQIZCsg8GdbGg0jkAR+g4BABwQE/g4USRMPLSDwC/yHHjy+SIBAFgICfxZl0AgCjQICfyOLhQTyEhD486qH1sxWQOAX+Gc7omyNAIFFCwj8ixa3PwLTCwj801v5JIHWBAT+1ujteAECAr/Av4BhZhcECMxRQOCfI65NEziigMB/REBfJ7AIAYF/Ecr20ZaAwC/wtzX27JcAgdkICPyzcbQVAvMQEPjnoWqbBGYsIPDPGNTmshIQ+AX+rAakxhAgcGABgf/AZL5AYGECAv/CqO2IwOEFBP7D2/lm/gICv8Cf/yjVQgIExgkI/ON0rCPQroDA366/vROYSkDgn4rJhzoqIPAL/B0duppNgMCegMBvKBDIV0Dgz7c2WkZgKCDwDym8KFBA4Bf4CxzWukSgVwICf6/KrbMdExD4O1Ywze2ngMDfz7r3pdcCv8Dfl7GunwRKFRD4S62sfpUgIPCXUEV9KF5A4C++xL3uoMAv8Pf6PwCdJ1CAgMBfQBF1oVgBgb/Y0upYSQICf0nV1Jf9AgK/wL9/THhPgEC3BAT+btVLa/slIPD3q95621EBgb+jhdPsqQQEfoF/qoHiQwQIZCsg8GdbGg0jkAR+g4BABwQE/g4USRMPLSDwC/yHHjy+SIBAFgICfxZl0AgCjQICfyOLhQTyEhD486qH1sxWQOAX+Gc7omyNAIFFCwj8ixa3PwLTCwj801v5JIHWBAT+1ujteAECAr/Av4BhZhcECMxRQOCfI65NEziigMB/REBfJ7AIAYF/Ecr20ZaAwC/wtzX27JcAgdkICPyzcbQVAvMQEPjnoWqbBGYsIPDPGNTmshIQ+AX+rAakxhAgcGABgf/AZL5AYGECAv/CqO2IwOEFBP7D2/lm/gICv8Cf/yjVQgIExgkI/ON0rCPQroDA366/vROYSkDgn4rJhzoqIPAL/B0duppNgMCegMBvKBDIV0Dgz7c2WkZgKCDwDym8KFBA4Bf4CxzWukSgVwICf6/KrbMdExD4O1Ywze2ngMDfz7r3pdcCv8Dfl7GunwRKFRD4S62sfpUgIPCXUEV9KF5A4C++xL3uoMAv8Pf6PwCdJ1CAgMBfQBF1oVgBgb/Y0upYSQICf0nV1Jf9AgK/wL9/THhPgEC3BAT+btVLa/slIPD3q95621EBgb+jhdPsqQQEfoF/qoHiQwQIZCsg8GdbGg0jkAR+g4BABwQE/g4USRMPLSDwC/yHHjy+SIBAFgICfxZl0AgCjQICfyOLhQTyEhD486qH1sxWQOAX+Gc7omyNAIFFCwj8ixa3PwLTCwj801v5JIHWBAT+1ujteAECAr/Av4BhZhcECMxRQOCfI65NEziigMB/REBfJ7AIAYF/Ecr20ZaAwC/wtzX27JcAgdkICPyzcbQVAvMQEPjnoWqbBGYsIPDPGNTmshIQ+AX+rAakxhAgcGABgf/AZL5AYGECAv/CqO2IwOEFBP7D2/lm/gICv8Cf/yjVQgIExgkI/ON0rCPQroDA366/vROYSkDgn4rJhzoqIPAL/B0duppNgMCegMBvKBDIV0Dgz7c2WkZgKCDwDym8KFBA4Bf4CxzWukSgVwICf6/KrbMdExD4O1Ywze2ngMDfz7r3pdcCv8Dfl7GunwRKFRD4S62sfpUgIPCXUEV9KF5A4C++xL3uoMAv8Pf6PwCdJ1CAgMBfQBF1oVgBgb/Y0upYSQICf0nV1Jf9AgK/wL9/THhPgEC3BAT+btVLa/slIPD3q95621EBgb+jhdPsqQQEfoF/qoHiQwQIZCsg8GdbGg0jkAR+g4BABwQE/g4USRMPLSDwC/yHHjy+SIBAFgICfxZl0AgCjQICfyOLhQTyEhD486qH1sxWQOAX+Gc7omyNAIFFCwj8ixa3PwLTCwj801v5JIHWBAT+1ujteAECAr/Av4BhZhcECMxRQOCfI65NEziigMB/REBfJ7AIAYF/Ecr20ZaAwC/wtzX27JcAgdkICPyzcbQVAvMQEPjnoWqbBGYsIPDPGNTmshIQ+AX+rAakxhAgcGABgf/AZL5AYGECAv/CqO2IwOEFBP7D2/lm/gICv8Cf/yjVQgIExgkI/ON0rCPQroDA366/vROYSkDgn4rJhzoqIPAL/B0duppNgMCegMBvKBDIV0Dgz7c2WkZgKCDwDym8KFBA4Bf4CxzWukSgVwICf6/KrbMdExD4O1Ywze2ngMDfz7r3pdcCv8Dfl7GunwRKFRD4S62sfpUgIPCXUEV9KF5A4C++xL3uoMAv8Pf6PwCdJ1CAgMBfQBF1oVgBgb/Y0upYSQICf0nV1Jf9AgK/wL9/THhPgEC3BAT+btVLa/slIPD3q95621EBgb+jhdPsqQQEfoF/qoHiQwQIZCsg8GdbGg0jkAR+g4BABwQE/g4USRMPLSDwC/yHHjy+SIBAFgICfxZl0AgCjQICfyOLhQTyEhD486qH1sxWQOAX+Gc7omyNAIFFCwj8ixa3PwLTCwj801v5JIHWBAT+1ujteAECAr/Av4BhZhcECMxRQOCfI65NEziigMB/REBfJ7AIAYF/Ecr20ZaAwC/wtzX27JcAgdkICPyzcbQVAvMQEPjnoWqbBGYsIPDPGNTmshIQ+AX+rAakxhAgcGABgf/AZL5AYGECAv/CqO2IwOEFBP7D2/lm/gICv8Cf/yjVQgIExgkI/ON0rCPQroDA366/vROYSkDgn4rJhzoqIPAL/B0duppNgMCegMBvKBDIV0Dgz7c2WkZgKCDwDym8KFBA4Bf4CxzWukSgVwICf6/KrbMdExD4O1Ywze2ngMDfz7r3pdcCv8Dfl7GunwRKFRD4S62sfpUgIPCXUEV9KF5A4C++xL3uoMAv8Pf6PwCdJ1CAgMBfQBF1oVgBgb/Y0upYSQICf0nV1Jf9AgK/wL9/THhPgEC3BAT+btVLa/slIPD3q95621EBgb+jhdPsqQQEfoF/qoHiQwQIZCsg8GdbGg0jkAR+g4BABwQE/g4USRMPLSDwC/yHHjy+SIBAFgICfxZl0AgCjQICfyOLhQTyEhD486qH1sxWQOAX+Gc7omyNAIFFCwj8ixa3PwLTCwj801v5JIHWBAT+1ujteAECAr/Av4BhZhcECMxRQOCfI65NEziigMB/REBfJ7AIAYF/Ecr20ZaAwC/wtzX27JcAgdkICPyzcbQVAvMQEPjnoWqbBGYsIPDPGNTmshIQ+AX+rAakxhAgcGABgf/AZL5AYGECAv/CqO2IwOEFBP7D2/lm/gICv8Cf/yjVQgIExgkI/ON0rCPQroDA366/vROYSkDgn4rJhzoqIPAL/B0duppNgMCegMBvKBDIV0Dgz7c2WkZgKCDwDym8KFBA4Bf4CxzWukSgVwICf6/KrbMdExD4O1Ywze2ngMDfz7r3pdcCv8Dfl7GunwRKFRD4S62sfpUgIPCXUEV9KF5A4C++xL3uoMAv8Pf6PwCdJ1CAgMBfQBF1oVgBgb/Y0upYSQICf0nV1Jf9AgK/wL9/THhPgEC3BAT+btVLa/slIPD3q95621EBgb+jhdPsqQQEfoF/qoHiQwQIZCsg8GdbGg0jkAR+g4BABwQE/g4USRMPLSDwC/yHHjy+SIBAFgICfxZl0AgCjQICfyOLhQTyEhD486qH1sxWQOAX+Gc7omyNAIFFCwj8ixa3PwLTCwj801v5JIHWBAT+1ujteAECAr/Av4BhZhcECMxRQOCfI65NEziigMB/REBfJ7AIAYF/Ecr20ZaAwC/wtzX27JcAgdkICPyzcbQVAvMQEPjnoWqbBGYsIPDPGNTmshIQ+AX+rAakxhAgcGABgf/AZL5AYGECAv/CqO2IwOEFBP7D2/lm/gICv8Cf/yjVQgIExgkI/ON0rCPQroDA366/vROYSkDgn4rJhzoqIPAL/B0duppNgMCegMBvKBDIV0Dgz7c2WkZgKCDwDym8KFBA4Bf4CxzWukSgVwICf6/KrbMdExD4O1Ywze2ngMDfz7r3pdcCv8Dfl7GunwRKFRD4S62sfpUgIPCXUEV9KF5A4C++xL3uoMAv8Pf6PwCdJ1CAgMBfQBF1oVgBgb/Y0upYSQICf0nV1Jf9AgK/wL9/THhPgEC3BAT+btVLa/slIPD3q95621EBgb+jhdPsqQQEfoF/qoHiQwQIZCsg8GdbGg0jkAR+g4BABwQE/g4USRMPLSDwC/yHHjy+SIBAFgICfxZl0AgCjQL/HwAA//9D4uHhAABAAElEQVTs3Xl0nFmZ3/GndpWqSqrS7n3f931vm4Y+QLPvWxjITAgnLJPMcJKT/JuVM5mZTCaHzBAmJKdDYCBMgIHQNA207XZ7bdvtfWvvlm1Zu0pSSVVSVfRcI+PulmTJLknv+97v68OxXFWquvdzXzj86t77XJ+8IAXhQgABRwtsKt8kfzjzD2VXapekQimJBqKObi+NQ2AsAun+tNzpvSN7WvfIN29+U452HB3Lr7v2tUtiS+QjtR+RnRU7ZUV8hdSGa13bFxqOAAJ2C+xr3Sdfv/p12d26W3rzvdJX6LMbhN4j4CABH4HfQaNBUxAYRoDAPwwMD3tCgMBP4PfEjUwnELBYgMBv8eDTdccLEPgdP0Q0EAERAj93gZcFCPwEfi/f3/QNARsECPw2jDJ9dKsAgd+tI0e7rRIg8Fs13NZ1lsBP4LfupqfDCHhMgMDvsQGlO54SIPB7ajjpjFcFCPxeHVn6pQIEfgI//01AAAF3CxD43T1+tN7bAgR+b48vvfOIAIHfIwNJN4YUIPAT+Ie8MXgQAQRcI0Dgd81Q0VALBQj8Fg46XXafAIHffWNGi0cvQOAn8I/+buGVCCDgRAECvxNHhTYhcF+AwM+dgIALBAj8LhgkmvjYAgR+Av9j3zz8IgIIOEKAwO+IYaARCAwpQOAfkoUHEXCWAIHfWeNBa4orQOAn8Bf3juLdEEBgogUI/BMtzuchMHoBAv/orXglApMmQOCfNHo+eAIECPwE/gm4zfgIBBAYRwEC/zji8tYIPKEAgf8JAfl1BCZCgMA/Ecp8xmQJEPgJ/JN17/G5CCBQHAECf3EceRcExkOAwD8eqrwnAkUWIPAXGZS3c5QAgZ/A76gbksYggMCYBQj8YybjFxCYMAEC/4RR80EIPL4Agf/x7fhN5wsQ+An8zr9LaSECCIwkQOAfSYfnEJhcAQL/5Prz6QiMSoDAPyomXuRSAQI/gd+lty7NRgCB3woQ+LkVEHCuAIHfuWNDyxB4IEDgf0DBDx4UIPAT+D14W9MlBKwSIPBbNdx01mUCBH6XDRjNtVOAwG/nuNvSawI/gd+We51+IuBVAQK/V0eWfnlBgMDvhVGkD54XIPB7foit7iCBn8Bv9X8B6DwCHhAg8HtgEOmCZwUI/J4dWjrmJQECv5dGk768WYDAT+B/8z3BvxFAwF0CBH53jRettUuAwG/XeNNblwoQ+F06cDR7VAIEfgL/qG4UXoQAAo4VIPA7dmhoGAJC4OcmQMAFAgR+FwwSTXxsAQI/gf+xbx5+EQEEHCFA4HfEMNAIBIYUIPAPycKDCDhLgMDvrPGgNcUVIPAT+It7R/FuCCAw0QIE/okW5/MQGL0AgX/0VrwSgUkTIPBPGj0fPAECBH4C/wTcZnwEAgiMowCBfxxxeWsEnlCAwP+EgPw6AhMhQOCfCGU+Y7IECPwE/sm69/hcBBAojgCBvziOvAsC4yFA4B8PVd4TgSILEPiLDMrbOUqAwE/gd9QNSWMQQGDMAgT+MZPxCwhMmACBf8Ko+SAEHl+AwP/4dvym8wUI/AR+59+ltBABBEYSIPCPpMNzCEyuAIF/cv35dARGJUDgHxUTL3KpAIGfwO/SW5dmI4DAbwUI/NwKCDhXgMDv3LGhZQg8ECDwP6DgBw8KEPgJ/B68rekSAlYJEPitGm466zIBAr/LBozm2ilA4Ldz3G3pNYGfwG/LvU4/EfCqAIHfqyNLv7wgQOD3wijSB88LEPg9P8RWd5DAT+C3+r8AdB4BDwgQ+D0wiHTBswIEfs8OLR3zkgCB30ujSV/eLEDgJ/C/+Z7g3wgg4C4BAr+7xovW2iVA4LdrvOmtSwUI/C4dOJo9KgECP4F/VDcKL0IAAccKEPgdOzQ0DAEh8HMTIOACAQK/CwaJJj62AIGfwP/YNw+/iAACjhAg8DtiGGgEAkMKEPiHZOFBBJwlQOB31njQmuIKEPgJ/MW9o3g3BBCYaAEC/0SL83kIjF6AwD96K16JwKQJEPgnjZ4PngABAj+BfwJuMz4CAQTGUYDAP464vDUCTyhA4H9CQH4dgYkQIPBPhDKfMVkCBH4C/2Tde3wuAggUR4DAXxxH3gWB8RAg8I+HKu+JQJEFCPxFBuXtHCVA4CfwO+qGpDEIIDBmAQL/mMn4BQQmTIDAP2HUfBACjy9A4H98O37T+QIEfgK/8+9SWogAAiMJEPhH0uE5BCZXgMA/uf58OgKjEiDwj4qJF7lUgMBP4HfprUuzEUDgtwIEfm4FBJwrQOB37tjQMgQeCBD4H1DwgwcFCPwEfg/e1nQJAasECPxWDTeddZkAgd9lA0Zz7RQg8Ns57rb0msBP4LflXqefCHhVgMDv1ZGlX14QIPB7YRTpg+cFCPyeH2KrO0jgJ/Bb/V8AOo+ABwQI/B4YRLrgWQECv2eHlo55SYDA76XRpC9vFiDwE/jffE/wbwQQcJcAgd9d40Vr7RIg8Ns13vTWpQIEfpcOHM0elQCBn8A/qhuFFyGAgGMFCPyOHRoahoAQ+LkJEHCBAIHfBYNEEx9bgMBP4H/sm4dfRAABRwgQ+B0xDDQCgSEFCPxDsvAgAs4SIPA7azxoTXEFCPwE/uLeUbwbAghMtACBf6LF+TwERi9A4B+9Fa9EYNIECPyTRs8HT4AAgZ/APwG3GR+BAALjKEDgH0dc3hqBJxQg8D8hIL+OwEQIEPgnQpnPmCwBAj+Bf7LuPT4XAQSKI0DgL44j74LAeAgQ+MdDlfdEoMgCBP4ig/J2jhIg8BP4HXVD0hgEEBizAIF/zGT8AgITJkDgnzBqPgiBxxcg8D++Hb/pfAECP4Hf+XcpLUQAgZEECPwj6fAcApMrQOCfXH8+HYFRCRD4R8XEi1wqQOAn8Lv01qXZCCDwWwECP7cCAs4VIPA7d2xoGQIPBAj8Dyj4wYMCBH4Cvwdva7qEgFUCBH6rhpvOukyAwO+yAaO5dgoQ+O0cd1t6TeAn8Ntyr9NPBLwqQOD36sjSLy8IEPi9MIr0wfMCBH7PD7HVHSTwE/it/i8AnUfAAwIEfg8MIl3wrACB37NDS8e8JEDg99Jo0pc3CxD4Cfxvvif4NwIIuEuAwO+u8aK1dgkQ+O0ab3rrUgECv0sHjmaPSoDAT+Af1Y3CixBAwLECBH7HDg0NQ0AI/NwECLhAgMDvgkGiiY8tYGvgn1c6T56pfEY2lm+UhaULpSJU8diG/OL4CfgG/q+SXn6fX0K+kIT9YYn4I+Y/UX9Ugr7g+H0474yASwQI/C4ZKJpppQCB38php9NuEyDwu23EaO9YBGwN/DXhGlkWXyZzonOkLlInsUBsLGy8doIENPD7fD4T8MsD5ZIKpaQqXCW14VqZEpki8UBcXzFBreFjEHCmAIHfmeNCqxBQAQI/9wECLhAg8LtgkGjiYwvYGvg14NdGaiUVTEkimJCwL/zYhvziOAoMZHkN9CX+EikLlt0P/KEqmRaZZr6smVoyVapD1Sb462y/rgTgQsA2AQK/bSNOf90kQOB302jRVmsFCPzWDr0VHbc18Gs41KXhukTcBEUhKDryhv9t4PcPjE/IP7Ckf+CLGR2zqoHQPzs6W1YmVsq25DaZXzpfEoGBL24GnuNCwDYBAr9tI05/3SRA4HfTaNFWawUI/NYOvRUdtzXwWzG4Hu6kLuXXFRrL48tlZ2qnrC9bLwtjC81sv24BYJm/hwefrr1FgMD/FhIeQMAxAgR+xwwFDUFgeAEC//A2PON+AQK/+8fQxh7oqgxd5l8ZrjQz/VvKt8hHaz9qvgDQ4n4s7bfxrrC3zwR+e8eenjtfgMDv/DGihQgIgZ+bwMsCBH4vj673+6ZL+LUeg87wf3bqZ2Vrcqsp6KcrALgQsEWAwG/LSNNPNwoQ+N04arTZOgECv3VDblWHCfxWDbfnOqsz+TrbPy86T56ufFqeSj0lOts/o2SG5/pKhxAYToDAP5wMjyMw+QIE/skfA1qAwCMFCPyPJOIFLhYg8Lt48Gj6A4HBYxZ3VewyS/uXxpY+eI4fEPC6AIHf6yNM/9wsQOB38+jRdmsECPzWDLWVHSXwWznsnuv0YBG/nRU75Z9M/ydmib/nOkmHEBhGgMA/DAwPI+AAAQK/AwaBJiDwKAEC/6OEeN7NAgR+N48ebR8U0EJ9pYFSeariKfnarK+ZvfwBX2DgMD+OWxw04m/vChD4vTu29Mz9AgR+948hPbBAgMBvwSBb3EUCv8WD76Gua7DXgL8ttU2+NvtrZi9/1B8V/SKACwGvCxD4vT7C9M/NAgR+N48ebbdGgMBvzVBb2VECv5XD7tlOb0lukT+a9Ueie/nLAmUS8Uc821c6hsCgAIF/UIK/EXCeAIHfeWNCixB4iwCB/y0kPOAhAQK/hwaTrsjG8o3y1ZlfNYG/MlQpOsvPhYDXBQj8Xh9h+udmAQK/m0ePtlsjQOC3Zqit7CiB38ph92ynN5RvkC/P+LJo8b7qULXEAjHP9pWOITAoQOAflOBvBJwnQOB33pjQIgTeIkDgfwsJD3hIgMDvocGkK0Lg5yawUYDAb+Oo02e3CBD43TJStNNqAQK/1cPv+c4T+D0/xFZ1kMBv1XDT2d8KEPi5FRBwrgCB37ljQ8sQeCBA4H9AwQ8eFCDwe3BQLe4Sgd/iwbe46wR+iwefrjtegMDv+CGigQiIEPi5C7wsQOD38uja1zcCv31jTo9FCPzcBQg4V4DA79yxoWUIPBAg8D+g4AcPChD4PTioFneJwG/x4FvcdQK/xYNP1x0vQOB3/BDRQATuz/CbY55Su6QiVCHRAMc8cV94R4DA752xpCdC0T5uAisFNPD/h6v/QXa37pbefK/0F/qtdKDTCDhRgMDvxFGhTQi8SUDPdf7KjK/IztROqQpXSWmg9E2v4J8IuFeAwO/esaPlbxVghv+tJjzifYGXW1+Wf3/l35vAnyvkCPzeH3J66CIBAr+LBoum2iuwoWyDfGnGl8y5zjXhGs51tvdW8GTPCfyeHFZrO0Xgt3bore743ta98m+v/FvZ3bLbhP285K32oPMIOEmAwO+k0aAtCAwjsL5svXxx+hdlV8UuqYvUSTwQH+aVPIyA+wQI/O4bM1o8vACBf3gbnvGmQKFQkD2te+RfX/nXsqdljxR++8ebvaVXCLhPgMDvvjGjxRYKrC1bK1+Y9gUT+KdFpkkimLBQgS57VYDA79WRtbNfBH47x93WXmu4zxfyZmb/31z5Nyb422pBvxFwqgCB36kjQ7sQeEhgTWKN/P6035ddA0X7ZkRnSHmw/KFn+REBdwsQ+N09frT+jQIE/jd68C9vC2jY1z37upT/3139d6J7+bkQQMBZAgR+Z40HrUFgSIHVidXyuSmfM3v450TnSDKUHPJ1PIiAGwUI/G4cNdo8nACBfzgZHveiQF+hT3r7e02xvq9f/brsa9vnxW7SJwRcLUDgd/Xw0XhbBFbGV8pnp3zWBP55pfPM0Xy29J1+el+AwO/9MbaphwR+m0abvubyOenu7zaB/z9e+4/yStsroCCAgMMECPwOGxCag8BQAiviK+RTdZ8ye/gXxhZKZahyqJfxGAKuFCDwu3LYaPQwAgT+YWB42JMC2XxW0n1pE/j/7PqfyYG2A57sJ51CwM0CBH43jx5tt0ZgWXyZfKL2EybwL4ktkapwlTV9p6PeFyDwe3+Mbeohgd+m0aavPfkeac+1m8D/F9f/Qg62HwQFAQQcJkDgd9iA0BwEhhJYGlsqH639qCnatyyxTGrCNUO9jMcQcKUAgd+Vw0ajhxEg8A8Dw8OeFMj0Z6Ql12KK9v2Xm/9FDrUf8mQ/6RQCbhYg8Lt59Gi7NQI6q/+hmg+ZwL8ysVJqI7XW9J2Oel+AwO/9MbaphwR+m0abvur+/cZsown837j5DTnScQQUBBBwmACB32EDQnMQGEpgUWyRfKD6AybwrylbI3WRuqFexmMIuFKAwO/KYaPRwwgQ+IeB4WFPCnT2d0pDb4MJ/H9966/l1Y5XPdlPOoWAmwUI/G4ePdpujcDC0oXy3ur3msC/rnydTI1MtabvdNT7AgR+74+xTT0k8Ns02vRVC/bd7r1tAv+36r8lRzuOgoIAAg4TIPA7bEBoDgJDCcwvnS/vqnyXKdq3qXyTTC+ZPtTLeAwBVwoQ+F05bDR6GAEC/zAwPOxJgfa+drmRuSF7WvfIt+u/LcfTxz3ZTzqFgJsFCPxuHj3abo3A3OhceUfFO2RnxU7ZntouM0tmWtN3Oup9AQK/98fYph4S+G0abframmuVK91XTJX+/3Xnf8mJ9AlQEEDAYQIEfocNCM1BYCiBWSWzZEdqh1nS/3Tl0zInOmeol/EYAq4UIPC7ctho9DACBP5hYHjYkwJN2SY513XOLOn/fsP35UznGU/2k04h4GYBAr+bR4+2WyMwLTJN9P9E7krtkmern5UFpQus6Tsd9b4Agd/7Y2xTDwn8No02fb3be1eOdxw3M/w/afyJXOi6AAoCCDhMgMDvsAGhOQgMJVAbrpUViRUm8H+49sOix/RxIeAVAQK/V0aSfqgAgZ/7wCaBmz035UDbAdnTskdeaH5BLmcu29R9+oqAKwQI/K4YJhppu0BlqNLM6use/s9M+YysiK+wnYT+e0iAwO+hwaQrBH7uAasErmauykstL5nAr4X7rvdct6r/dBYBNwgQ+N0wSrTReoGyYJnMKJlhZvj/YNofyJqyNdabAOAdAQK/d8aSnjDDzz1gl8Cl7kvyfNPzJvAfaj8k9b31dgHQWwRcIEDgd8Eg0UQESgOlUh2qNsfyfXnGl80MEioIeEWAwO+VkaQfKsCSfu4DmwS0YN+PGn5k9vCfTJ+UhmyDTd2nrwi4QoDA74phopG2C4T9YUkEEibw//GsP5YtyS3iG/jDhYAXBAj8XhhF+jAoQOAflOBvGwROdZ6S7935ngn8F7suSnOu2YZu00cEXCVA4HfVcNFYWwUCvoCEfCET+P/lnH8pO5I7xOfTyE/ot/We8FK/CfxeGk36QuDnHrBJ4Hj6uHy7/tvmWD4t4Nfe125T9+krAq4QIPC7YphopO0CJtoPBHwN+v9qzr8SLd6nXwDoFwFcCLhdgMDv9hGk/Q8LEPgf1uBnrwscaT8i//XmfzUz/I3ZRunq7/J6l+kfAq4TIPC7bshosK0CGvp1Kf/XZn3NzPTHA3HRpf5cCLhdgMDv9hGk/Q8LEPgf1uBnrwvokXx/fv3PzQy//m95b77X612mfwi4ToDA77oho8E2C2ws3yhfmfEVE/j1qD4t5seFgNsFCPxuH0Ha/7AAgf9hDX72qkBBBv4UCvJy28vyJ1f/RPRIPg37fYU+r3aZfiHgWgECv2uHjobbKLC2bK3osXy7Urtkesl00eP6uBBwuwCB3+0jSPsfFiDwP6zBz14VyBfykivkTND/+tWvy8utL0t/oV+/BvBql+kXAq4VIPC7duhouI0CK+Ir5DNTPmMC/4LYAqkIVdjIQJ89JkDg99iAWt4dAr/lN4Al3c/ms2a//u6W3fKn1/9U9rftt6TndBMB9wkQ+N03ZrTYYoHFscXyoZoPmcC/KrFKaiO1FmvQda8IEPi9MpL0QwUI/NwHNghocT4t0qeBX4v2Hek4YkO36SMCrhQg8Lty2Gi0rQLzovPkmcpnTODfmtoqM0pm2EpBvz0k0NnfKXezd83/cfzmzW/Kqx2veqh3dMU2Aa218uWZXzb/O10VqqLWim03gCX9bc21ytXMVfO/28/deU5OpE9Y0nO6iYD7BAj87hszWmyxwPTIdNlcvtkcy/euqnfJ/NL5FmvQda8I6ExRQ7bB7AX9q5t/JXrMExcCbhXYVL5Jvjrzq6a4qm67ivqjbu0K7UZgWIGG3gYT8ne37pYf3fuRnO86P+xreQIBBCZXgMA/uf58OgJjEqgOV8vS2FIzc/Sxuo/JsviyMf0+L0bAiQI9+R5p7WuVPS175C9v/KUcbDtI4ScnDhRtGlFAj071+XyyNblV/mjWH8nO1E5JBBIcnzqiGk+6VeBGzw3Z17rPzPD/uuXXciVzxa1dod0IeF6AwO/5IaaDXhLQqvwzIjPMDL9W69eq/VwIuF1Aj3HS45z2tu6VP7n2J+b/RFLt2e2jal/7/T6/hHwheSr1lPyLOf9CdiR3mH/r41wIeE3gUvcl+Xnjz83KrMPth6W+t95rXaQ/CHhGgMDvmaGkIzYIlPhLJBVMmf9D+Yez/tAs79cZJf3DhYBbBfQYJz3iSas8/9n1PzMz/brMX4984kLALQIRf8QclbqrYpeZ4dftV/xvs1tGj3aOVeB052n5/p3viy7p1+X8Tbmmsb4Fr0cAgQkSIPBPEDQfg0AxBAK+gIR9YdmR2iH/fPY/N3/rjBIzSMXQ5T0mU0BD/9GOo/Lfbv03s0T0Tu8d0WJ+XAi4RcCswIrOMFuudAXWmsQatzSddiIwZoFjHcfkW7e+Zf73Wmf39bQVLgQQcKYAgd+Z40KrEBhWQGeMtiS3yB/P+uP7e0SDCdGZJS4E3C5woeuC/LTxp2bG6HjHcdHQr18EcCHgdAFdaaVFVfVIvp0VO+Xdle+WBaULnN5s2ofAmAUGV2RprZX/fOM/m61Y7X3torVYuBBAwJkCBH5njgutQmBEgXVl6+QL079gZpKmRqZKYiD0cyHgdgE90/lc1zmzJ/SHDT+UM51nzFJ/Qr/bR9bb7dewr6uvVsZXyifqPmG2XGnYrwxVervj9M5KAa2vksvnTND/02t/Ki+3vWy2X+njXAgg4EwBAr8zx4VWITCiwPL4cvlk3SfNsU+LYotEz3rmQsDtApl8RvRs5yMdR+Rv7/6taCGopmyTWdpfKGjsZ7bf7WPspfbraivdThUPxKU2Uit6HN+n6j4l+oVsebCclVdeGmz68kBAC6x29HWYpfz/6fp/koPtnKryAIcfEHCoAIHfoQNDsxAYSUBnj95T/R4zw69LSHWWnwsBtwvoDFG2kJWrmaumUr8W8TvQfkCuZ66bGSQt7MeFgFMETE0Vf1jmROfI9uR2cxyfbreaVTKL6vxOGSTaUXQBDfv1PfVm69Xf1P+N6F5+LgQQcLYAgd/Z40PrEBhSQP8PpRbu25XaJU9XPm3+D+eQL+RBBFwooLP8lzOX5UT6hOxr2ye6t19n+rUoVDafNV8K9OX7JD/wx8z6M/HvwlF2UZMHDkExs/kycOyeP2QKp4YHgr4W6asKV8mS2BKzjH9VYpUJ+zq7z4WAVwX0f4t169Xult3y/Ybvm61XXu0r/ULAKwIEfq+MJP2wSqAuXCerE6tNcagP1nxQFscWW9V/OuttAQ31eixfY65RbvbclIvdF+V0+rRc7bkqzdlmae1rlXRfWnRpKYHf2/eCI3r328Cvx6JqyE+FUmYblc7s6/YqXXE1s2SmCf+lgVIzu++IdtMIBMZBQGf3D7UfMjP8zzc9L693vz4On8JbIoBAMQUI/MXU5L0QmCCBVDBlZvW1GvTvTf09E/4n6KP5GAQmTCBXyJngr0c+aQG/a5lr0pwbCPwDKwB0tt8Efvb2T9h42PpBOruvhfn0NBSdvR8M/LrSall8mdlSRdC39e6wr9+Xuy/Li80vmsCv2670S1kuBBBwtgCB39njQ+sQGFIg6o9KRajCHMv31ZlfNcWi9P+QciHgJQFdsq/7+jP9GdFjn7r7u6W30GsqROuXAYN7+inm56VRd15fNPDrpQX6Qr6BJf0Dy/k1/Jf6S82MfzQQNVX6/QNL/rkQ8LqAfvn6g7s/MIFfl/br6SpcCCDgbAECv7PHh9YhMKRA0Bc0/4dTC0X9s1n/zBSMKgmUiD7OhQACCCCAAAIIFFNAv1jVL1mPdhwVLda3t2Wv3O69bVZbFfNzeC8EECi+AIG/+Ka8IwLjLqAzTlohen3ZevnijC+amf6acI3EArFx/2w+AAEEEEAAAQTsEtDVVrqy6pW2V+Qvrv+FvNz6sll1pY9xIYCAswUI/M4eH1qHwIgCWjBKz33eVbFLFsUWSWWocsTX8yQCCCCAAAIIIDBWgZ58j7Tl2mRv6175yxt/KQfbD5oZf7ZUjVWS1yMw8QIE/ok35xMRKJrAvOg8eabyGRP4tya3yoySGUV7b94IAQQQQAABBBBQAS2WejVzVfa07JHn7jxnjk0l7HNvIOAOAQK/O8aJViIwpMCUyBRZl1hnjud7X/X7zCz/kC/kQQQQQAABBBBA4DEFdL/+0fajpljfzxp/Zo5Lfcy34tcQQGCCBQj8EwzOxyFQTIFkMCmzorNkV2qXfH7a5zmer5i4vBcCCCCAAAIIGAE9ju+F5hdkd8tuOdB+QG713EIGAQRcIkDgd8lA0UwEhhIo8ZeYM6GfSj0lX57xZXM8n1bq1+OjuBBAAAEEEEAAgWIInEqfku/d/Z6Z4b/YdVGac83FeFveAwEEJkCAwD8ByHwEAuMloJX69Vxo3b//T2f+U9mR2mEq9es50VwIIIAAAggggMCTChQKBTncfli+cfMbsqd1jzTlmkyF/id9X34fAQQmRoDAPzHOfAoC4yqwrmydfHH6/eP5dF9/IpgY18/jzRFAAAEEEEDA+wJ9hT7p6e95cBzfvrZ9ohX79XEuBBBwhwCB3x3jRCsRGFFgaWypfKT2I2Yv//LEcqkJ14z4ep5EAAEEEEAAAQQeJdDV3yWN2UZzHN9f3/xrOdJxRPoL/UKF/kfJ8TwCzhEg8DtnLGgJAo8tMDs6W96Wepup1r8ztVP031wIIIAAAggggMCTCOhe/Utdl8ze/e/e+a6c6jz1JG/H7yKAwCQIEPgnAZ2PRKDYArXhWlkRX2ECv870L4ktKfZH8H4IIIAAAgggYJmAVuM/0HbABH6t0q/V+rkQQMBdAgR+d40XrUVgSAHdsz8tMk10dv8fTvuHsrZsrWhBP//AHy4EEEAAAQQQQOBxBC50XZC/v/f3JvAfTx+XO713Hudt+B0EEJhEAQL/JOLz0QgUS0Ar9ZcGSmVbcpt8ZeZXzN/RQNRU8C/WZ/A+CCCAAAIIIGCPgFbnP9ZxTP6m/m9M4K/vrZd0X9oeAHqKgEcECPweGUi6YbeAT+7/0Wr9/3j6P5ZdFbukLlIn8UDcbhh6jwACCCCAAAJjFtAq/Jn+jOxv22+O49vXuk+0gF+2kB3ze/ELCCAwuQIE/sn159MRKJqARv5FsUXywZoPmqX9qxOrTegv2gfwRggggAACCCBghYDO5Ovy/b2te+Xb9d+Wox1HzVF8eclb0X86iYCXBAj8XhpN+mK9wPSS6bK5fLM5nu+dVe+U+aXzrTcBAAEEEEAAAQTGJtCQbZCT6ZOyu2W3/Ojej+Rc17mxvQGvRgABxwgQ+B0zFDQEgScXSAaTMis6ywT+z0/7vOgsPxcCCCCAAAIIIDAWAa3Gr1X5NfAfaD8gWq2fCwEE3ClA4HfnuNFqBIYUiPgjUh4sl+3J7fKlGV+SzcnNoo8FfcEhX8+DCCCAAAIIIIDAoEBBCpIv5OVE+oT87zv/2yzpv5y5LK251sGX8DcCCLhMgMDvsgGjuQiMJOD3+U1l/g1lG+QL078gO1I7pCZcI7FAbKRf4zkEEEAAAQQQQED6C/2SzWfNrP43bnxDXm57WTr6OqQ334sOAgi4VIDA79KBo9kIjCSwLL5MPl77cVOtf0lsiVSHq0d6Oc8hgAACCCCAAALS3d8tzblmM7P/Vzf/Sg61HzJfAujMPxcCCLhTgMDvznGj1QiMKDCrZJY8lXpKdlbslKcrnpY50Tkjvp4nEUAAAQQQQACBxmyjKdC3p2WP/J+G/yOnO08PRH3CPncGAm4WIPC7efRoOwLDCFSGKs0RfTtTO+WTdZ+U5fHl4vPpwX2+YX6DhxFAAAEEEEDAdoFrmWvyUstLsrt1t+xp3SPXM9dtJ6H/CLhegMDv+iGkAwi8VSDqj0oqlJKnkk+Z4n2bkptM4T7d48+FAAIIIIAAAggMJXCq85R87873TOC/2HXRLO8f6nU8hgAC7hEg8LtnrGgpAqMWGCzet6l8k3xp+pdM8T79AiAaiI76PXghAggggAACCNghoMX6tDDf4fbD8q1b3zLF+nQvv+7p50IAAXcLEPjdPX60HoEhBczi/YEl/Mtjy+VjdR8TXdqvxfuqwlVDvp4HEUAAAQQQQMBeAQ32Tbkm2de6zwT+wx2HzRcA+kUAFwIIuFuAwO/u8aP1CIwoMLNkppnd35XaJU9X3i/exz7+Ecl4EgEEEEAAAesEBov17W7ZLT9o+IGc6TxjnQEdRsCrAgR+r44s/UJgQCAZTMrs6Gwzw/+5qZ+TVYlVFO/jzkAAAQQQQACBNwi83v26vND0ginUd6D9gNzqufWG5/kHAgi4V4DA796xo+UIPFIg4o9IIpCQLckt8sXpXzR/xwNxCfvDj/xdXoAAAggggAAC3hbIF/KSK+TktfRr8p3b35GXW1+W6z3Xpa2vzdsdp3cIWCRA4LdosOmqfQKDxft0Zv/TdZ+Wp1JPyZzoHEmGkvZh0GMEEEAAAQQQeIOAFurr6OuQ/W375Zu3vikH2w5KV3+XZAvZN7yOfyCAgHsFCPzuHTtajsCoBeZF58kzlc/IropdsjW5VWaUzBj17/JCBBBAAAEEEPCmQGuuVa5mrsqelj3y3J3n5ET6hBQG/nAhgIB3BAj83hlLeoLAsAJVoSpZHFssWrzvE1M+Icvjy4d9LU8ggAACCCCAgB0C1zPXzb59Dfwvtb5kwr8dPaeXCNgjQOC3Z6zpqcUCUX9UKkOVsj21Xf7RtH8kG8s3SjQQlaAvaLEKXUcAAQQQQMBOgbzkRY/cO50+LT+4+wPZ27pXLnRfkOZcs50g9BoBDwsQ+D08uHQNgUGBgC8gYV9Y1pWtk89P+7zsSO6QKZEpkggmBl/C3wgggAACCCBgiYAW6sv0Z8yefd27/0rbK9Le1y49+R5LBOgmAvYIEPjtGWt6ioAsii2SD1R/wOzlX5NYI3WROlQQQAABBBBAwDKBdF9a6nvrzcz+f7/13+VY+piZ8Wf/vmU3At21QoDAb8Uw00kE7gtowNegr3v5P1DzAfMFADYIIIAAAgggYJdAfU+9HG4/LLtbd8svmn4hl7ovUazPrluA3lokQOC3aLDpKgKJQMIs5d+R2iGfm/o5s8Q/4o+ILvnnQgABBBBAAAFvC+gMvu7dP991Xn5y7ydmhl8r8zdkG7zdcXqHgMUCBH6LB5+u2yegRfq0gN+G8g3yB9P+QLYlt0l1uFpKA6X2YdBjBBBAAAEELBPoK/RJb75XjrQfkW/d+pbsa9snTbkm6e7vtkyC7iJgjwCB356xpqcIPBBYElsiH6n5iNnLvyKxQmrCNQ+e4wcEEEAAAQQQ8KaA7t2/03tHXm59Wf7H7f8hRzuOihbw01l/LgQQ8KYAgd+b40qvEBhRoC5cJ6sTq03g1738i2OLR3w9TyKAAAIIIICA+wVu9dwylfn3tO6RXzb/Ui5nLku+kGf/vvuHlh4gMKwAgX9YGp5AwLsCsUBMasO1Zkm/7uVfX77eLOsP+ULe7TQ9QwABBBBAwFIBDfW6nP9M5xn58b0fm737Z7rOSGO20VIRuo2APQIEfnvGmp4i8EBA9/Jrsb61ibXy6Smflu2p7TKjZIaUB8sfvIYfEEAAAQQQQMAbAtl8VnQ5/8H2g/Lt+m/L/rb90tbXJj35Hm90kF4ggMCwAgT+YWl4AgHvC8wvnS/vrHynOaZvU3KTTC+ZLr6BP1wIIIAAAggg4B2B1lyrXMlckb0te+U7d74jJzpPsJTfO8NLTxAYUYDAPyIPTyLgbYHKUKUsKF0gO1M75VNTPiUr4ivE59PIT+j39sjTOwQQQAABmwQ07P+6+deyp2WPqcx/o+cG+/ZtugHoq9UCBH6rh5/O2y6gy/p1Gf+W8i3mmL7Nyc1SFiwzy/1tt6H/CCCAAAIIuF1Aq+/rMXyvpV+Tv73ztybsX81cNcv53d432o8AAqMTIPCPzolXIeBJAb/PL1qoT2f2P1L7EdmR3CGLYoukKlzlyf7SKQQQQAABBGwS6O7vlqZck7zS+or8z9v/U460H5Gu/i7JFrI2MdBXBKwWIPBbPfx0HoH7AjNLZsr25HaztP/pyqdlbnQuS/u5ORBAAAEEEHC5wL3sPTnVecos5f+7hr+Tc13nWMrv8jGl+QiMVYDAP1YxXo+ABwV0Gf+0yDR5KvWU6DF9a8vWmpl/XQHAhQACCCCAAALuFDjfdV5+cu8nsqd1jxxPH5e7vXfd2RFajQACjy1A4H9sOn4RAe8I6DF9UX9UNpRvkN+f+vuyLbVNqsPVEgvEvNNJeoIAAggggIAlArlCTnQ5/6vtr8pzd56TV9pekYbeBuns77REgG4igMCgAIF/UIK/EbBYQKvyB3wBWVS6SN5d9W4z07+ufJ1MjUy1WIWuI4AAAggg4E6B9r52uZ65boL+d+981xTt68n3SF+hz50dotUIIPDYAgT+x6bjFxHwnkBtuFZWJVaZ4n3vrX6vLI4vNkv79csALgQQQAABBBBwtkBBd+gXCqLH7h1oO2CW8r/Y/KLosXxcCCBgpwCB385xp9cIDCmgy/pToZRsLt8svzf192RT+SZJhpJS4i8Z8vU8iAACCCCAAALOEcgX8qLL+V/reE10Zn9v2165lrnGMXzOGSJagsCECxD4J5ycD0TAuQK6tF8L9S2PLZeP1X3MVO1fHFvMMX3OHTJahgACCCCAwAMB3aOve/X3t+2X524/J692vGqO4dMvAbgQQMBOAQK/neNOrxEYVkBDf12kTlYnVsuu1C55f837zd5+n8837O/wBAIIIIAAAghMvsCtnltmKf/e1r3y65Zfy+vdr0t/oV/yA3+4EEDATgECv53jTq8RGFFAq/PXhGtkS/kW+QdT/oGp3p8IJiTij4z4ezyJAAIIIIAAAhMvoKG+N98rpztPy4/v/Vj2te6Tc13npCnXNPGN4RMRQMBRAgR+Rw0HjUHAGQJ6TJ+G++Xx5fLhmg/L9uR2WRRbJJXhSmc0kFYggAACCCCAwAMBPYKvMdtoZve/c+c7crj9sHT0d5gvAR68iB8QQMBKAQK/lcNOpxEYncCMkhmyLbnNHNP3dMXTMrd0rjm+zy/+0b0Br0IAAQQQQACBcRXQyvy6b/9k+qTsbt1tZvjPd53Xev3j+rm8OQIIuEOAwO+OcaKVCEyKQDwQlymRKSb0f3bqZ2V92XqJBqLmqL5JaRAfigACCCCAAAIPBAaP4TvTeUZ+2PBDcwzf2a6zZrb/wYv4AQEErBYg8Fs9/HQegZEFAr6ACfdrEmvkM1M+IztSO2RWdJaUB8tH/kWeRQABBBBAAIFxF+jJ90hrrlUOtR2S5+48J4faD5l/Z/KZcf9sPgABBNwhQOB3xzjRSgQmRWDwmL6ZJTNla3KrOabv7ZVvl7nRuZPSHj4UAQQQQAABBH4n0JBtkFPpU/Jy68vys8afmUJ92ULWVOb/3av4CQEEbBYg8Ns8+vQdgVEKJINJM7Ov+/k/XvtxWV22WkoDpSztH6UfL0MAAQQQQKCYAlqVP1fIyaWuS/JC8wsm8L/a8arc7r1dzI/hvRBAwAMCBH4PDCJdQGC8BUK+kOhRfasTq+XjdR83e/pZ2j/e6rw/AggggAACQwvoUv72vnY50n5EvnP7O3Kg/YA5gk+r9XMhgAACDwsQ+B/W4GcEEBhRQJfyv73i7aZq/5bkFtGl/rrP3++jav+IcDyJAAIIIIBAkQS0UJ8ewaeV+HUpvxbr06J9OuufH/jDhQACCDwsQOB/WIOfEUBgRIGyYJkMHtX3ybpPytrE2vtL+/2hEX+PJxFAAAEEEEDgyQU07OcLeTnbedYcv7e3da+c7jwt97L3zDF8HMX35Ma8AwJeEyDwe21E6Q8C4ygQ9AUl4o/IqsQqs5d/e2q7KeCXCqXG8VN5awQQQAABBBBQAV2y35RrksNth+W7d79rlvQ355qFqvzcHwggMJwAgX84GR5HAIG3CGjVfl3CPzUyVdaVrTNL+5+telYWlC4Qn8/3ltfzAAIIIIAAAggUT6C+t96EfF3K/6vmX8ml7ktCVf7i+fJOCHhRgMDvxVGlTwiMs0A8EJcpkSmyuXyz6NJ+Df/loXIp8ZeM8yfz9ggggAACCNgn0Ffok0x/Rs52nTXH773S+oqc6TpjlvLbp0GPEUBgLAIE/rFo8VoEEDACurRfw/3S+FJ5T9V7TNX+FYkVUhOuQQgBBBBAAAEEiiyQ7kvLnd47phr/9+9+X452HDVV+nvzvUX+JN4OAQS8JkDg99qI0h8EJlBAl/avL1svO1I75JnKZ2Rh6UIJ+8Nm2f8ENoOPQgABBBBAwJMCWoRPq+/X99TLqx2vihbpe77peXm9+3VTpM+TnaZTCCBQVAECf1E5eTME7BKI+qNSGaqUTeWb5NNTPi0byzeaf0cDUbsg6C0CCCCAAALjIKBL+XUW/7WO10Rn9ve17ZNrmWvS2tc6Dp/GWyKAgBcFCPxeHFX6hMAECWgRP7/PL0tiS+SDNR80RfyWx5dLbbjWFPHT57kQQAABBBBA4PEE2vva5WbmprzS9op87+735HjHcVORP1fIPd4b8lsIIGCdAIHfuiGnwwgUV0BDfVW4ShaXLjZL+z9a+1FZFl8mus9fvwzgQgABBBBAAIHHE7jSfUVebH7RLOU/2H5QbvbcNEv885J/vDfktxBAwDoBAr91Q06HESi+QMQfkfJguanW/6m6T8nm5GZTxV+r+XMhgAACCCCAwNgEdBm/zu7rjP7fNfydKdanYV8f40IAAQTGIkDgH4sWr0UAgSEFdCY/5AvJ7Ohs2Z7cbmb6d6Z2mn8P+Qs8iAACCCCAAALDCtzL3pMznWfMUv6fN/7cHMfX3d8tLOUflownEEBgGAEC/zAwPIwAAmMXSAVTMjc618zw657+VYlVUhYsE10BwIUAAggggAACIwtokb6e/h652H1RftPyG9nXuk+OdByR2723R/5FnkUAAQSGESDwDwPDwwggMHaBsC8ssUBMlsaXyrNVz8rW5Fazn786XD32N+M3EEAAAQQQsEygs69T7vTekUPth+SHDT+Uox1HpTnXbAr1WUZBdxFAoEgCBP4iQfI2CCDwO4FpkWmyoWyDbE9tl6crnpYFsQVS4i8xhfx+9yp+QgABBBBAAAEVyBfyorP79b31cqzjmLzc+rI83/S8vN79uhR++wcpBBBA4HEECPyPo8bvIIDAiAJRf1QqQ5Wyvmy9fLTuo7KxfCNF/EYU40kEEEAAAZsFsvmsdPV3yfH0cfnh3R/K/rb9cr3nuinSp4GfCwEEEHhcAQL/48rxewggMKyAHtWnfxaULpB3Vb3LFPFbW7ZWdOaf4/qGZeMJBBBAAAHLBMzsfaEgLbkWudR9yRTp06r8pzpPiVbq11l/LgQQQOBJBAj8T6LH7yKAwLACGvj1qL5Z0VmytXyrfKzuY7I6sdrs8Q/7w8P+Hk8ggAACCCBgi4Au5e8v9Mu5rnPy08afmqX8pztPS0O2wTzO7L4tdwL9RGD8BAj842fLOyNgvYDO5muF/pXxlfKR2o/ItuQ2mV86XypCFeLz3V8FYD0SAAgggAAC1gp09nfK3d67crj9sPzg7g8o0mftnUDHERg/AQL/+NnyzghYL6CRPuALSG24VlbEV5il/e+rfp8sji02j/t9fuuNAEAAAQQQsFfgeua67G3da2b2X2l7Ra5mrkq2kDWz+/aq0HMEECimAIG/mJq8FwIIDCnwcBE/Xdq/qXyT1EZqJR6ID/l6HkQAAQQQQMDLAro/v6OvQ06kT8hPGn8iB9sOyuXMZWnNtXq52/QNAQQmQYDAPwnofCQCtgnoLH/YF5Y50TlmWb8e17cztdPs77fNgv4igAACCCDQmG2UM51nTDV+PX7vTNcZU6Vfq/VzIYAAAsUUIPAXU5P3QgCBEQVSwZTMjc6VzcnNokv7VyZWSiqUkhJ/yYi/x5MIIIAAAgh4QSBXyJlgf6nrkuxu2W0C/5GOI1LfW++F7tEHBBBwoACB34GDQpMQ8KqAzvLHAjFZFFskb698u2xNbpU1iTUyJTLFq12mXwgggAACCDwQaOtrE923r0X6/v7e38tr6dekOdcsmXzmwWv4AQEEECimAIG/mJq8FwIIjEpAi/itSqySLckt8kzlM6aIXyKQEI7rGxUfL0IAAQQQcJlAX6FPdN++hv1D7YdEC/S91PKSKdLH0XsuG0yai4DLBAj8LhswmouAFwR0CX95sFxWJFbIs1XPyubyzbIwtlAqQ5Ve6B59QAABBBBA4A0CXf1dci97zxy796OGH4ku49fj+NL96Te8jn8ggAACxRYg8BdblPdDAIFRC8womWGW9W9LbpPtye0yr3SeRANRCflCo34PXogAAggggIBTBfKFvOi+/du9t+Vk+qTsa9snWqTvQtcFc/Qes/tOHTnahYB3BAj83hlLeoKA6wRKA6VSHaqWtWVr5QPVH5AN5Rtkesl0KQuWua4vNBgBBBBAAIE3Cwwev6d79f9vw/+Vg+0H5XrPdWnLtQlh/81a/BsBBMZDgMA/Hqq8JwIIjErAJwN/fD6ZF50n76h4h2xLbZP1ZetFZ/4j/ojocX5cCCCAAAIIuE1Aw3x/oV/0+D2dzdc9+z+59xM523XW7OXXPf1cCCCAwEQIEPgnQpnPQACBYQU09CeCCZkamSobyzfKh2s+bGb8dT+/rgDgQgABBBBAwG0CGuh7+nvkdOdp+fG9H5vj9y52XzQV+fWLAGb33TaitBcB9woQ+N07drQcAc8I+H1+CfqCplr/e6reI9tT22V5fLnUhevM4/o8FwIIIIAAAk4X0CBfKBSkNdcq1zLX5ED7AfnRvR/JifQJU6Avm886vQu0DwEEPCZA4PfYgNIdBNwoMLi0PxVMyZzoHHNc34dqPmSO7osH4hzX58ZBpc0IIICAhQJapE9n93UZ//9r/H9mKf+pzlNyJ3vHPK7PcyGAAAITKUDgn0htPgsBBEYU0Fn+qD9qZvc/UPMBU8F/ful8qQpVmf38zPSPyMeTCCCAAAKTJDA4s5/uS0t9b70caT9ilvIfSx+TplyTdPd3T1LL+FgEELBdgMBv+x1A/xFwkIDO9GuhvupwtSwoXSBby7fKe6vfa74A0P38IT/H9TlouGgKAggggMBvBXTmXvfmv979urzY/KKZ2dfK/Ld6b5kiffocFwIIIDAZAgT+yVDnMxFAYESBsD8siUBCVsRXyPur3y+bk5tlbnSuVIYrzRcC+sUAFwIIIIAAAk4Q0Nl9ndm/03tHjnYclZ82/tT8rf/u7O90QhNpAwIIWCxA4Ld48Ok6Ak4VGCziVxOqkUWxRQ9m+pfGl0pJoMQU8nNq22kXAggggIA9Ahr2dXb/cvdl+U3Lb8zM/rGOY3Kj54b05HvMvn17NOgpAgg4UYDA78RRoU0IIGAEIv6IlAfLZVV8lby/5v2yqXyTzI7OlopQheiXAsz0c6MggAACCEyWgIb9zr5Oacg2iIb8nzX+zMzs6zL+jr6OyWoWn4sAAgi8QYDA/wYO/oEAAk4S0FAf8oXM8XxLYktMEb9nq58V/Vm/DND9/lwIIIAAAghMtMBgkb6rmauyu2W3mdl/teNVud5zXTL9GckVchPdJD4PAQQQGFKAwD8kCw8igICTBLRyfyqUktWJ1WZP/8byjTIzOlOSwSQz/U4aKNqCAAIIWCLQ1d8l93rvyfH0cfl5089NVX4N++197ZYI0E0EEHCLAIHfLSNFOxGwWEBn8sO+sNRF6kzF/q3JrfLuqneb/f26AoCZfotvDrqOAAIITLBAoVAwM/l7W/fK/rb9cqj9kOhMvx69x8z+BA8GH4cAAo8UIPA/kogXIICAUwT0aL7KUKWsSawxe/o3lm2U6SXTzT5/n0939FO93yljRTsQQAABLwpoqG/KNsmJ9IkHM/tXMlekta/Vi92lTwgg4AEBAr8HBpEuIGCLgM7k6979qZGpsjK+0uzpf2flO2VhbKGp3K97/rkQQAABBBAYDwGd2b/Zc9PM6u9v32/+vtJ9RXR5f7aQHY+P5D0RQACBJxYg8D8xIW+AAAITLRALxKQmXGNm+t9X/T5ZV7ZOppVMMzP9VO+f6NHg8xBAAAFvC2iBvsGZ/VOdp+SXzb80e/YvdV+S5lyztztP7xBAwPUCBH7XDyEdQMA+gaAv+GCmf3l8uWwp3yLPVD0jC0sXUr3fvtuBHiOAAALjJjBYjf965rqpxH+g/YAcbj9s9uyn+9OSzTOzP274vDECCBRFgMBfFEbeBAEEJkNA9/RXh6pN9X4t4reufJ3MLJkpqWDKFPJjif9kjAqfiQACCLhfYDDo63L9ht4GOdl5Ul5sflH06L3LmcvSmmPPvvtHmR4gYIcAgd+OcaaXCHhSYHBPf224VhaVLpLN5ZvlnVXvlCWxJaJfBoT8IU/2m04hgAACCIyvQL6Ql/5Cv5nJ392yW3Rm/7X0a6Y6v9mzz8z++A4A744AAkUTIPAXjZI3QgCByRIo8ZdIMpiUFfEV8mzVs7KhfIPMKZ1jKvrrsX3M9E/WyPC5CCCAgLsEdGZfw366Ly23e2+bkP+Lpl/IsfQxU7Cvo6/DXR2itQggYL0Agd/6WwAABNwvoDP9GuyrQlUyv3S+bCzfKLrEX/f3J4IJs6/f/b2kBwgggAAC4y2gs/q5fE60IN+vWn4lB9sOihbqq++tl0x/RnKF3Hg3gfdHAAEEiipA4C8qJ2+GAAKTKRD2hSUeiMvS+FIT+DeVb5IFpQukOlwtYX/Y7OufzPbx2QgggAACzhTQmX0N+225NjOTf6zjmDzf/LyZ4dc9/J39nc5sOK1CAAEEHiFA4H8EEE8jgIB7BPziF63gXxGqkNnR2bKhbIMJ/isTK81j0UDUPZ2hpQgggAACEybQV+iTnv4eOd91Xl5ofkEOth80P9/tvSs9+R7R57kQQAABNwoQ+N04arQZAQRGFNDQH/VHZXFssbyz8p2yKbnJFPKri9SZ5f36PBcCCCCAAAK6X1/DfEuuRfTovSMdR+TnTT+Xk+mT5rFMPgMSAggg4GoBAr+rh4/GI4DAUAI+8Znl+1rIb0bJDFlXts7M9K9OrJbaSK3EArGhfo3HEEAAAQQsE8gOVNvX5fpnO8/K803Py6H2Q2b/fmO2UbKFrFnmbxkJ3UUAAY8JEPg9NqB0BwEEficwWMxP9/E/U/mMObZveWK5TItME13er4X+uBBAAAEE7BMwxfkGCvA1ZZvkcvdlE/Q18J/pOiNaib8332sfCj1GAAFPChD4PTmsdAoBBFRAZ/r1SL6yQJlMiUyRNWVrzBL/tWVrzcx/WbAMKAQQQAABCwV0X74W6NMK/Br0D7cflquZq9KcazaV+HWpPxcCCCDgBQECvxdGkT4ggMCIAlrMT2f750bnyq6KXbI5uVnWJNbIzJKZZnm/VvDnQgABBBDwvoDO7OvsfUO2QS50XTAz+79o+oWc6zon3f3dHLvn/VuAHiJgnQCB37ohp8MI2CegM/36Jx6MS024RlbGV5ol/uvL1su80nmSCqXsQ6HHCCCAgIUCGup1f/6J9AlTnO9ox1G50XNDWnOtZr9+XpjZt/C2oMsIeFqAwO/p4aVzCCDwsICJ/T6fzCqZJduT282e/vXl62VOdI7o8v6IP/Lwy/kZAQQQQMAjAlqJP9Ofkdu9t02BPj1275fNv5SLXRelt9BLcT6PjDPdQACBtwoQ+N9qwiMIIOBhAQ39pYFSqQpVybL4Mnm64mnZUL7BHNtXHa72cM/pGgIIIGCvQLovbcL+8fRxs2f/eMdxqe+tl/a+dtH9+oWBP1wIIICAFwUI/F4cVfqEAAKPFNDgr9X6N5ZvlE3lm2RLYFUaCAAANHNJREFUcotoNf9kKCkl/pJH/j4vQAABBBBwvkAun5Ou/i651XvLLOM/2HZQft3ya7mcuSw6609xPuePIS1EAIEnEyDwP5kfv40AAi4WiPqjUhGqkMWxxbIjtcOEfy3mVxepc3GvaDoCCCCAwKCAVuK/lrkmuldfl/Dr3v272buS7k9LoaDz+szsD1rxNwIIeFOAwO/NcaVXCCAwBoG6cJ2sSqwygf+p1FOyKLZIKkOVEg1ETbG/MbwVL0UAAQQQcICAVuLXZfwa9o91HBPds7+3da9c67nGEn4HjA9NQACBiRMg8E+cNZ+EAAIOFdAl/Mlg0lTs1+X9g/+ZUTJDfANF/vQPFwIIIICAewSask1yvuu8HGk/Ii+1vCSnu06b6vy6vJ9ZffeMIy1FAIEnFyDwP7kh74AAAh4R0Fl9nd3X4/p2pnaaon614VpznF/AFyD4e2Sc6QYCCHhTQIO8HrvXkmuR17tfN2FfA/+h9kNmDz9B35vjTq8QQGBkAQL/yD48iwACFgmE/WFJBBIyvWS6LIstM9X731bxNplfOt8c2Rf0BS3SoKsIIICAewQ0zGsBvps9N0UL8x3uOGz27V/pvmK+AOjOd7unM7QUAQQQKKIAgb+ImLwVAgh4QyAeiJvCfSvjK+Udle+Q1YnVMrNkpinwp18K6Gw/FwIIIIDA5AvkJS/9hX6zX/9u71053Xla9rTuMfv2L3VfkuZc8+Q3khYggAACkyhA4J9EfD4aAQScKaAz+bqvvypcJXOic2RtYq08U/mMWeI/WMzPmS2nVQgggIBdArlCTjL9GbnYfVFean5JjnQcMXv3b/feNpX4s/msXSD0FgEEEHiTAIH/TSD8EwEEEBgUCPvCEgvEzL7+t1e83SzxX1i60Mz+6+M628+FAAIIIDDxAn2FPtFK/DqDfz1zXY53HJdftfxKTqVPSWOuUbQ4HxcCCCCAgAzUoHphYNMTFwIIIIDAWwT84hed7S8LlsnUyFRZEV8huyp2yZqyNTI3OldSodRbfocHEEAAAQTGX0ADfWO20Szhf7H5RRP4r/dcN18A6BcB+oUAFwIIIIAAgZ97AAEEEHikgAZ/3bc/KzpLtia3ysayjbK6bLVZ7p8KpqQkUEIF/0cq8gIEEEDgyQV0iX66Py23e27Lha4LZgn/b1p+Ixe7LkomnxFd4s+FAAIIIPA7AWb4f2fBTwgggMCQAj4T531SGiiVynClLChdIJvKNpkl/uvK1pnZf5/v/quGfAMeRAABBBAoioAu4b/UdckU5dPifFqk7272rinap8X7tIgfFwIIIIDA7wQI/L+z4CcEEEBgVAI14RpzbJ+G/e2p7bIktkRqIjXmSD+/z89s/6gUeRECCCAwOgE9ck8L87XkWuRK5oo5bu9I+xFz/N6N3hvmOD59DRcCCCCAwFsFCPxvNeERBBBAYESBiD8i5cFymR6Zbir3byjfILtSu2Re6TzR5zi2b0Q+nkQAAQRGLaBBPl/Iy62eW3K447Bo0H+141W53H3Z7Nfv7u8eeAVhf9SgvBABBKwTIPBbN+R0GAEEiiWQCCRkSmSKrEqskrdXvl1WJ1bLjJIZppifVvgn+BdLmvdBAAHbBDTE6xL9dF9a7vbelbNdZ2Vv616zlP9813lpyjXZRkJ/EUAAgccSIPA/Fhu/hAACCIip4B/1R6U6XG0K+OkS/3dUvsPM+msFf32OCwEEEEBg7AJaZV+X8V/qviS7W3ab4nznus5JfU+9Kdqnlfi5EEAAAQQeLUDgf7QRr0AAAQRGFAj7w2b//qLYInlHxTtkffl6U9ivLlwnsUBMQv7QiL/PkwgggAAC9wV0Vl/DvO7Xv565LsfTx+XXzb+Wk50npSHbIHocHxcCCCCAwOgFCPyjt+KVCCCAwJACWqgv6Auaff1TI1NlZXylvK3ibbImsUZmR2dLMpQc8vd4EAEEEEDgjQK6J1+X659On5ZfNf9KjqWPybXMNfOYfhGgM/9cCCCAAAKjFyDwj96KVyKAAAIjCgwG/9kls2Vbcps5tk/39ZvQH0xKNMAS/xEBeRIBBKwVyOaz0tnfKXd678iFrgtmCf9vmn8jF7svmln9XCFnrQ0dRwABBJ5EgMD/JHr8LgIIIPCQgE8P5PP5JOaPSWW4UhaWLpTN5ZtlQ9kGWVu21hT40+e5EEAAAQTeKKBL+LXy/rGOY7K7dbec7jxtwn9HX4cp3peX/Bt/gX8hgAACCIxKgMA/KiZehAACCIxdoCZcIyviK2R92Xoz4784ttgU+IsH46aCv35BwIUAAgjYKKBV+AuFgmTyGWnNtcqVzBU53nHczOwfaDsgN3pumKDPkXs23h30GQEEiilA4C+mJu+FAAIIPCQQ8UfMvn49qm9ZfJkJ/juSO2Re6TyzvF/3/XMhgAACNgrkC3kT6Ot76+VI+xET9I92HJXXu1+X5lyz6F5+wr6NdwZ9RgCBYgsQ+IstyvshgAACbxJIBBOixfx0tn9XapesTKyU6SXTpTJUaYJ/yEcV/zeR8U8EEPCogFbhzxay0pHrkLu9d0WP2tvfvt/M7p/vOm+K83m063QLAQQQmBQBAv+ksPOhCCBgk4DO5GvBPg340yPTTeB/KvWU+QJAg39ZsMwmDvqKAAIWCwwu4T/feV72tO4xx+7pcv6G3gZJ96fNkXwW89B1BBBAoOgCBP6ik/KGCCCAwNACGvxL/CUyt3Su2dO/LrFOlsSXyMySmZIKpSTqj5qif+ztH9qPRxFAwL0CeqSeFuDTWf3B/foa+HVWv62vTXryPe7tHC1HAAEEHCxA4Hfw4NA0BBDwloAG+YAvILFATKrCVTIvOk/WJNbIurJ15gi/aZFp5nk93o8LAQQQ8IqAFudrzDXKuc5zZkZfi/Jp0L+bvWu+BNAj93SpPxcCCCCAQPEFCPzFN+UdEUAAgVEJVIWqRCv3rylbI1vLt8qS2BKpi9RJWahMwr6wCf+jeiNehAACCDhMQI/R0xDf1dcljdlGuZy5LFqUT4/d07+1WJ8+T2E+hw0czUEAAc8JEPg9N6R0CAEE3CKgVfwTgYQJ+XOic8xs/87UTlkcX/xgib9b+kI7EUAAgYcFdNY+05+RK91XZF/bPhPydVb/Zs9Nae1rNc8R9h8W42cEEEBgfAQI/OPjyrsigAACoxbQff3JYNLM9mvg1xn/udG592f7Bwr66RcDXAgggIAbBAaDflO2SW713JKTnSdlb+teOdV5yszqp/vSbugGbUQAAQQ8I0Dg98xQ0hEEEHCrgO7r16P5tFp/XbjOBP/N5ZtN8F8aWyrV4WpTzM+t/aPdCCBgj4AW5tNZ/JPp+0H/dOdpE/yb+5rNrH5foc8eDHqKAAIIOECAwO+AQaAJCCCAgAoMFvXT4n1ry9aKVvHXgn7zSueZ0B8Lxu4X9ROK+nHHIICAMwR0Wb4W5dPj9lpyLXKj54ac7Txr9uq/0vaKXM1cNRX4CfrOGC9agQAC9gkQ+O0bc3qMAAIOFtDQHw1EJRVMyYySGWa2X8P/9uR2E/z1OV0NwIUAAgg4QSBfuF+cT5fvH+k4YvbqH08fN3v3m3JN0tXfRXE+JwwUbUAAAWsFCPzWDj0dRwABpwskggmZGpkqK+Ir5KnUU7IyvtJ8CVAZrpTSQCnB3+kDSPsQ8LCAVtjP5rPS3tcud3vvyrmuc7K/bb85du9C1wXRsM+FAAIIIDD5AgT+yR8DWoAAAggMKRD0Bc1sf0WwQqaXTJfl8eX3g3/ifvAvD5YP+Xs8iAACCIy3gFbg1yX8GvT3tO6R1zpeM8v3G7INku5PS2++d7ybwPsjgAACCIxCgMA/CiReggACCEymgAZ/rdSvR/dtS24z+/qXxpfKzJKZUhGqkKg/aor66XYALgQQQGA8BTTID87qX+6+bGb0NfDrrL4+3pPvGc+P570RQAABBMYoQOAfIxgvRwABBCZaYLCYXywQk8pQpdnLvzqx2gT/DWUbzOy/fing91HMb6LHhs9DwCYBLc7XmG2UM11n5HjHcTnQfsAEfZ3V1+r8eiSfLvXnQgABBBBwjgCB3zljQUsQQACBUQlo6F8UWyRrEmtka3KrLIktkdpIregSf10JoOGfCwEEECiGgBbl0wr7nf2d0pRtEp3VP9pxVI6mj5pK/PW99aKv0Wr9XAgggAACzhMg8DtvTGgRAgggMKJA2B+WRCAhteFas8x/VWKV7EjtMBX9q8PVoisBuBBAAIFiCGhhPg37GvT1mD2d2b/QfUG0Kn9rX6voXn7CfjGkeQ8EEEBgfAQI/OPjyrsigAAC4y6gs/k6q7+wdKE5tk+D/9zSuaayfyqUYm//uI8AH4CANwU0wOte/XRf2izhv9lzU053npZ9bfvkbOdZudN7xxTm82bv6RUCCCDgLQECv7fGk94ggIBFArpnP+QLmdl+ndmfG50rGvrXlK2RtYm1Mq1kmnmevf0W3RR0FYEnFNCwP7hXXyvwn0ifkCMdRx7s1W/LtUkmnzHL/J/wo/h1BBBAAIEJECDwTwAyH4EAAgiMt4AW9tPQvzi22IT+jWUbZWFsodSF6yQZSprj/fTLAS4EEEBgKAEttpctZM2svtmrn7lsjtp7Lf2aqcSve/V1L7/u1+dCAAEEEHCPAIHfPWNFSxFAAIERBXSJf1mwTKpCVaZy/7LYMlPUb1l8mfm3PseFAAIIDCWgs/atuVa52HXR7NU/mT4pVzJXzPL9tr77s/o6869/uBBAAAEE3CNA4HfPWNFSBBBAYFQCYV/YFO7T/fybyzeLHuGnVf1nlMyQilCFlAZKJeALDKwJ8I3q/XgRAgh4T2Bw6X5Pvkfa+9rlbu9duZa5Jic7T5rAf6HrgjTlmqS7v9t7nadHCCCAgEUCBH6LBpuuIoCAHQJ+8Zuj+WLBmOgRfrNKZsnS+FJzjN/G8o0yKzpLSvwlHN9nx+1ALxEYUkCX5usyfg36JzpPmOr7x9LHTDX+xmyjdPR3mMJ9+houBBBAAAH3ChD43Tt2tBwBBBAYlUAqmDLH961IrJAt5VtkSXyJqeSvs/3xQFz0mD8uBBCwQ0D34ZtZ/Vy73Mvek0vdl+TVjldF9+prJf6GbIMp2sfSfTvuB3qJAALeFyDwe3+M6SECCFguMLjEXwP+lMgUWRJbIpuTm2VFfIXMK51nlvlbTkT3EbBGoLO/Uxp6G8zxeq+0vWJC/o2eGyb869J+PY6PsG/N7UBHEUDAAgECvwWDTBcRQAABFQj6gqKF/WaWzJQN5RvMEv/l8eVmib8u/dfZfn0Nx/hxvyDgHQEN77p8X/fit/a1Sn1Pvbze/bo5bm9/2355PfO6dPTdX77vnV7TEwQQQACBQQEC/6AEfyOAAAIeF9AifVqsT4v2pUIpmR6ZLgtLF5pj/LYmt8rc6FxJBBMs8ff4fUD37BIwx+3ls3Kz5+aDpftagV8L9GlRPp3xzxVyHLdn121BbxFAwCIBAr9Fg01XEUAAgYcFEoGE2cu/NLZUtiW3ybLEMlPJvzpcbY7309UAVPJ/WIyfEXCPgIb4rv4uc9SeFuY733VeDrUfEg37F7svSkuuhaX77hlOWooAAgg8tgCB/7Hp+EUEEEDA3QK6fD/qj0oymJTacK0siC0wS/31GD/9EkCDv8+nkZ/j+9w90rTeRoG2vja5nrlu9ugfaDtg9uzf7r1tZvXT/WnJDsz6cyGAAAIIeF+AwO/9MaaHCCCAwIgCg8f4TY1MlTVla0QDv/6tS/yrwlVSFigzy/x1OwAXAgg4U2DwmD2d1W/ONZsl/Oe6zsnx9HE51HbILOHP5DNm+b4ze0CrEEAAAQTGQ4DAPx6qvCcCCCDgIoH7c/g+iQbuz/ZrJf850Tmix/jp3v5FpYtEi/rp81wIIOBMgVz+/hL+q5mrZun+ifQJ0cCve/f1CwAt2qf7+fMDf7gQQAABBOwRIPDbM9b0FAEEEBiVgBb104CvBf008OvxfbOis6QuUmeW/+vzOtvPUv9RcfIiBMZFQKvvFwoFc4yeHqenBfju9N6Rc53n5ED7ATnTeUb0uD19jgsBBBBAwF4BAr+9Y0/PEUAAgSEFNMxrwT4t6lcVqjJhX4/vW5lYKWvL1prCfiX+EnOE35BvwIMIIDDuAoNL+BuyDSbcazE+Xb6vR+7dy94T3cOvs/pavI8LAQQQQMBeAQK/vWNPzxFAAIFHCugsvs72LyhdYGb615WvMzP/Otuvj+sxflTzfyQjL0CgaAKD1ffbc+3SmG2UK5krosv3NfCf7DwpWpG/r9DH0v2iifNGCCCAgLsFCPzuHj9ajwACCIy7gAb6eCAuqVDKVPOfXzpf1pWtM18ALI4tNtX8/T4/S/zHfST4AATEzNxr9f2znWflcPthc9yeVt9vzDWa5fs9/T3muD1d8s+FAAIIIIAAgZ97AAEEEEBgVAK61D/kC8m0kmmmkv+q+CoT+mdHZ5tq/uXBclPYT4/740IAgeIIaKE9ndXv7OuUllyLKcJ3ofuCmdE/0n7EVN/v7O+UbIFj9oojzrsggAAC3hIg8HtrPOkNAgggMG4CurxfZ/Kj/oFq/qGk1IRqZHrJdFkaWyobyzfKkvgSmRaZZpb5j1sjeGMELBPoyfdIa67V7M3XGf1Tnafkcvdl0Vl9fVyP4WMJv2U3Bd1FAAEExiBA4B8DFi9FAAEEEPidgC7111n9edF5JvDrMX663F9Df0WoQmKBmFkRoF8ScCGAwOgEdCm+FuTTgntaeK+ht8FU29cl/IfaD4nO7ms1fp3V50IAAQQQQOBRAgT+RwnxPAIIIIDAkAIa5HWJv+7v14Cvs/16lJ8G/w1lG2RudO6Don5DvgEPIoDAWwR0CX9vvldu9dwyVfe1IN/p9Gm51nNNmnPN0tHXITrrr7P6XAgggAACCDxKgMD/KCGeRwABBBAYlUBZsMwc2Te4xF8L+umXANXhakkGk2YrgM+nGwN8o3o/XoSALQI6q5/NZyXdlzb79PWovUvdl+TVjlflVPqUXOy6KE25poFX3f9jiwv9RAABBBB4cgEC/5Mb8g4IIIAAAgMCOtsfDUTNMv+qUJXMic6RVYlVsjKx0vw9NTKVJf7cKQi8ScBE+ELBBPoLXRdMwD/acdQEfg3+Wqgv3Z82Xwjoa7kQQAABBBAYiwCBfyxavBYBBBBA4JECg8X9asI1pqCfBv61ibUyr3Se6GN6vJ9uAwj7w498L16AgFcFdEm+HqHX0d8hzdlms2RfZ/NPpk+apfy6pL+30Cu6xJ8LAQQQQACBxxUg8D+uHL+HAAIIIDCsgIZ+Leqny/x1tr8uUieLShfJ+vL1sjy+XOZH55vgr0v8uRCwUUCP2dPie+e7zsuhjkOiRflu9twUndVvy7VJd77bFO9jVt/Gu4M+I4AAAsUTIPAXz5J3QgABBBAYQiDoC5r9+zNLZsq6snVmeb/u858RnWGK/elsv24F0NdxIeBVAZ2pzxVy5hg9PU5Pj9W70n1FTneeNtX3L2cum2P2tCAfFwIIIIAAAsUSIPAXS5L3QQABBBAYUkBn+wO+gJQGSiUVTMmUyBSZVTJLlsSXmC8AtLK/PpYIJob8fR5EwAsCGuR15v5q5qroHn0N+lqYT5fu6z59PWZPvxBgCb8XRps+IIAAAs4RIPA7ZyxoCQIIIGCFgAb/ylClzIvOM4F/WXyZKfCnRf10f38sEDPbAfRLAi4E3CqQL+TN0Xm6NF+D/r3sPRPuL3RfkGMdx8xSfl3C397X7tYu0m4EEEAAARcIEPhdMEg0EQEEEPCSgAZ53d+vwV5n/DXoz43OlaXxpeYLAC3up18I6BcDXAi4VUCP2evq75IbPTdMEb7T6dMPQn5L30Dl/YEj+Lr7u82svlv7SLsRQAABBJwvQOB3/hjRQgQQQMDTAolAwizp16X9usd/cWyxzIzOlLpwnSRDSfPFgB755/f5Pe1A59wtoMX1dDl+pj9jZu2bsk2mKJ8u2z+ePi5nu87K5e7LZvk+hfjcPda0HgEEEHCTAIHfTaNFWxFAAAEPCgwW9dM9/DrjP61kmmj412r+a8vWyuzobFPtX1cFcCHgVAE9Zq833yv1PfXmaL1TnafkTOcZud5zXZpzzeZLAN2nrzP/XAgggAACCEyUAIF/oqT5HAQQQACBRwpogb/yYLkJ+UtiS0zg1/A/tWSq1IRrJBlMmor/ui2AGf9HcvKCcRTQWfpCoSBajK+jr8OEet2nr5X3X0u/ZoryXei6II25RjPzz6z+OA4Gb40AAgggMKwAgX9YGp5AAAEEEJgMAV2+r/v7y4Jl5tg+Pc5PK/qviK+Q1YnVMj0y3ezvD/lDk9E8PhMBI6BF+bSqfkNvg5zpOiOn0qfkZOdJU4Vfl/O39rWaffo660/Y56ZBAAEEEJgsAQL/ZMnzuQgggAACIwrobL/P5zMF/BaULpBlsWWyJrFG5pfOl9pIrVSGK81qgKg/amb79fVcCIyngAZ3DfBacK+tr0002OsxeyfTJ82Mvh61dzd713wRoF8IcCGAAAIIIDDZAgT+yR4BPh8BBBBAYFgBDfFhf1jigbhZzq/V+3VPv872L08sN39PiUzhGL9hBXmiWAIa9jXEN2Yb5WL3RRPwdem+FuJryDaYYnx6xJ4u8del/szqF0ue90EAAQQQeBIBAv+T6PG7CCCAAAITJuAXv+jefd3LvzS21BT1W5lYKXNL50p1uNos/y8LlJnwrysDmPGfsKHx9AdpkT0ttqdhviXXItcz103FfS3KpzP7t3pumZCvRfu4EEAAAQQQcJoAgd9pI0J7EEAAAQSGFLgf4X0m0Ov+/lQoJdWhahP4VyVWmS8AtNCffiGglf8p6jckIw+OQUBn6lv6WkwhPj1W73jHcdFj9u703pGmXJNZ1q/H8OlxfMzojwGWlyKAAAIITJgAgX/CqPkgBBBAAIFiCuhsf9gXFl3SvyIxsMR/4Bg//c+skllm338ylJREIMGMfzHRLXgvndHv6u8ylfd1n77O4Gu1fd2ffzx9XG5kbpgZ/2yB4/UsuB3oIgIIIOB6AQK/64eQDiCAAAJ2CuiMv87il/hLTPE+3d+vs/tzonNEl/rrsv/FscVmuT8z/nbeI2Pttc7oa3V9LcR3vuu8nOg4YWb0b/felnu5e9KWa5Pu/m7R5fv5gT9cCCCAAAIIOF2AwO/0EaJ9CCCAAAKjEtBQr+F/WmSamelfFl8mS+NLzYx/RahCmPEfFaN1L3rzjH59T70pynem84ycSJ+Q6z3Xzf59rc7PhQACCCCAgNsECPxuGzHaiwACCCAwpIDO+Osyfz2mrzxYbor4vXnGf1FsETP+Q+rZ+eDgjP61zDU513XudzP62dumGr8W6tPl/blCzlTot1OJXiOAAAIIuFmAwO/m0aPtCCCAAALDCuiMv4b/qZGp5vi+wRn/mSUzzZcB5aFys8dfVwVQ1X9YRk89oYX1cvncG/boD87on+08a2b0r/VcY0bfU6NOZxBAAAG7BQj8do8/vUcAAQQ8KzDSjL8W+dOK/jrjr6sAQr4QVf09eyfc75iG/cEZfd2jr4X4dMn+692vi+7Rb8w2mqr7zOh7/EagewgggIBlAgR+ywac7iKAAAK2Cjw846+z/fofDf06418ZrpRkcKCqfzBh6gBoMUD9woDL3QIa8nWPfmd/5/2q+wNF9+p7600hPp3RP9l5Uq5n7u/R78n3uLuztB4BBBBAAIEhBAj8Q6DwEAIIIICA9wQenvEvC5aZZf1V4SqZXTLbhH+t6r8kvkRqw7US9odNPQDvKdjTIw37+UJemnPNcrn7stmjfyp9Si5nLsvd3rvSlGsyS/e16r7u0e8v9NuDQ08RQAABBKwRIPBbM9R0FAEEEEDgYQGd8Y/4I1IXrjPV/DXwD1b11y8CtKp/WaBMooGoCf/M+D+s57yfB5fsazV9ndHXgnutuVa51XPLVN3XGf1TnafkZs9NSfenhar7zhtDWoQAAgggUHwBAn/xTXlHBBBAAAEXCAzO+GvRPp3x1yX9laFKs8Rfg7/5z8CXAFr0ryRQIvoFAZdzBXQ2v6/QJ03ZJhPwter+6fRpuZK5Ivey98xMv34JkMlnqLrv3GGkZQgggAACRRYg8BcZlLdDAAEEEHCngB7pp8X7dEn/4this79f9/nPjs4WnfGvCFaYLwZKA6Um/Os+f67JE9AZfV2Gr3vv031pM6PfkmsxM/rnu86Lzuif7jxt9uwPFuKbvNbyyQgggAACCEyOAIF/ctz5VAQQQAABhwnojL+GeF3mr0v5y4PlkgqlZHrJdFlUush8AbA8vtz8W4v76T5/rskT0Nl8XZav+/E14OuM/v9v7057ozqWMAC3MV5ZFAj7EiCGECLl//8SgsIWCHbgiiAMMd6XO9VXY12EoUJiGAo/YyHALsblp/jyntPdJ0L+49XH/S7/y82X/SLAytZKvzCw3bZH16zvTIAAAQIERiQg8I8I3rclQIAAgS9bYLjk/9TEqXZj9ka/6x+B/9rMtXZ26mxf/h8XBY6MH3HI32cY5XDJfizJf735uu/PjwP54pT9X9780gP/naU77dn6s34hIC4IeBEgQIAAgYMuIPAf9P8Bfn4CBAgQeK9AhP644390/OjuPv/zU+fb9dnruxcAYsl/7P2Pw/28Pp1APF4vluYvrC60229u94Afd/bjEL44nG9xc7Ev7Y8l/rHUP5b8exEgQIAAgYMuIPAf9P8Bfn4CBAgQ+FsCEf7jIw73uzJzpf0w+0P7+djPbW52rl2cutj3+ccd/7g4MHNopk0cmvhb76tob4EI7bFkPx6bF4ftxf78OHzvt5Xf+tL9WMJ/b/lee77xvB/WFysAvAgQIECAAIG3BQT+tz38jQABAgQIvFcgAn8c7BcH98U+/gj4ZybPtCvTV/pd/zjkL+7+X5q61FcEjI2Nvfe9fOHDAhH0/9z4sy/Zv710u+/Tf7D8oD1de9rv5r/eet2WNpfa2s5a29npD+X78Bv6KgECBAgQOIACAv8BHLofmQABAgT2TyDu6J+bOte+n/m+ReCPO/+xz//c5Ll2fOJ4vzAQNZNjky0uAMSH17sCG9sbbXl7uYf42KMfd+7nV+dbhPwI/HeX7/bwH0v3/xfvLdl/V9FnCBAgQIDA2wIC/9se/kaAAAECBD5K4PDY4TZ9aLof3hd3/GM///ACwE9Hf2o3j9xsczNz/fPx6D+P83uXN+7Qx7L92I9/f/l+D/j3V+6331d/78v44wJAPHov7vpv7GzYn/8uoc8QIECAAIE9BQT+PVl8kgABAgQI/DOBOOQvgv/lqcv9jn8E/rjrf2H6Qt//H1+L7QCxz/8gXgCIu/Ox3z725y9tLfUgH2E/Hq8X+/PjTn7c0Y8//2f9P/2gvn82Cf+KAAECBAgQEPj9HyBAgAABAvsoEHfw+z7/Q7N9H/+JiRPt5MTJdnn6crs5e7Of7v/jkR9bnPYfj/Q7aIf7xWF8sXw/DuCLu/m/vvm1n7j/aPVR/1wczhcXAOJE/rgo4PF6+/if01sRIECAwIETEPgP3Mj9wAQIECDwOQViyX/c9Y/D/eJOf9zxv3XkVj/p/9TEqRYXBI4fPt7Df9RF/df06gF/sAx/ZWul/bX1V1vcWOyP0Yv9+XE3Px6tF78W1hb61+Pxe14ECBAgQIDA/ggI/Pvj6F0IECBAgMCeAnFIXyzdjzB/bPzY7un+cYc/Dvq7MXuj3Tp6q12dvtrOTp3twX/PNyr6ydXt1fZq41WbX5vvd/Pjjn4E/YXVhfZy82W/mx979Fe2Vzxer+iMtU2AAAECX66AwP/lzkZnBAgQIPAVCvRz+gen9X9z+Jvdx/nFEv+52bl2afpSOz1xut/xj5P9++n+h+qc7h/782O5foT34f78Fxsv+v78xyuP+538CPuxlD8euRcH8MV+fi8CBAgQIEDg0wgI/J/G1bsSIECAAIH3CkToj737s4N9/kcPH23Hx4+3bye/becnz7erM1f7Pv9Y/h8rAOLzscz/Sz/dvz8q7/9O23+48rDvzY/H6g1P24+T9mNZ/9LmUlvbWWtxOn98eBEgQIAAAQKfRkDg/zSu3pUAAQIECHyUQJzaH/v543C/uOMfgf/67PV+uF+sBtg93X98ph8KGNsERvmKO/OxPz+W7EeI72F+EOjjZP04YT/u4t95c6c9WnnUnq497TWj7Nf3JkCAAAECB1FA4D+IU/czEyBAgMAXJxABfnJsss0MAn0c4hcBP4L+xamLPfgPD/y7OH2xXxiYPjQ90p8hlu4vby23Z+vP+p78e2/u9d+frD7py/VfbrxssTc/aob780fasG9OgAABAgQOoIDAfwCH7kcmQIAAgS9fIC4AxOP94iT/2N8fh/vFY/2uzFxp56bO9Uf9HTt8rO/znx2f7RcLxgZnA8THfr9i2f3m9mYP7vG4vLibv7i52F6sv2hP1p60u2/u7ob+uAAQNbE/34sAAQIECBAYrYDAP1p/350AAQIECOwpEME99u3HXf/Y5x8H+MUp/6cnT7e4y39t5lpf9j83M9f3/Z+cONmfBrDfe/2He/Pjbn08Oi+W6EfAf7DyoMVBfLGE//XW690l/bHEP5b6bw8+vAgQIECAAIHRCgj8o/X33QkQIECAwEcJHBk/0s5MnmnfTX+3u88/DveLR/rFBYH4emwLiDMBpsen2+TglP9YLXBo8PGhVwT72Jcfd+ZXt1b73fyVrZW2vL3cl+U/X3/eD997uPyw382Pffrzq/Pt1dYrh+99CNbXCBAgQIDACAUE/hHi+9YECBAgQOBjBeLE/qlDUy2W8UfAj/3+Jw6f6BcB4rF+l6Yu9RUAsff/wvSFvvQ/LgDE9oAPveKufOzLj6X6z9aetT/W/uiBfn5tvv8eS/XjEXuvNl71A/hi2X5cEIgLBE7a/5CsrxEgQIAAgdEJCPyjs/edCRAgQIDAvxYY7vWPE/4j5O/+Giz7vzB1oT/WLy4OTI1N7S75j38Tr7ijHx/DsL+2vdYWNxbb0/Wn7Y/VQeAfhP2F1YX+e4T9OIDP3vx/PTJvQIAAAQIEPpuAwP/ZqH0jAgQIECCw/wLDvf5xB3+4lD+W8w//3Jf1D84BiFP9+6/BMv/4Pf7d+s56i5Afd+pj7338OX7Fn+Nzcbr+cFn/+va6vfn7Pz7vSIAAAQIEPqmAwP9Jeb05AQIECBAYrUDs3Y87+rGXv+/rH4T92BIQJ/rHEv4e7gfBPoJ+3L2Pu/5eBAgQIECAwNchIPB/HXP0UxAgQIAAgT0F4k7+cBXA8PC+3SX9saB/EPBjSX987Oz0M/n3fB+fJECAAAECBOoJCPz1ZqZjAgQIECBAgAABAgQIECCQCgj8KZECAgQIECBAgAABAgQIECBQT0DgrzczHRMgQIAAAQIECBAgQIAAgVRA4E+JFBAgQIAAAQIECBAgQIAAgXoCAn+9memYAAECBAgQIECAAAECBAikAgJ/SqSAAAECBAgQIECAAAECBAjUExD4681MxwQIECBAgAABAgQIECBAIBUQ+FMiBQQIECBAgAABAgQIECBAoJ6AwF9vZjomQIAAAQIECBAgQIAAAQKpgMCfEikgQIAAAQIECBAgQIAAAQL1BAT+ejPTMQECBAgQIECAAAECBAgQSAUE/pRIAQECBAgQIECAAAECBAgQqCcg8NebmY4JECBAgAABAgQIECBAgEAqIPCnRAoIECBAgAABAgQIECBAgEA9AYG/3sx0TIAAAQIECBAgQIAAAQIEUgGBPyVSQIAAAQIECBAgQIAAAQIE6gkI/PVmpmMCBAgQIECAAAECBAgQIJAKCPwpkQICBAgQIECAAAECBAgQIFBPQOCvNzMdEyBAgAABAgQIECBAgACBVEDgT4kUECBAgAABAgQIECBAgACBegICf72Z6ZgAAQIECBAgQIAAAQIECKQCAn9KpIAAAQIECBAgQIAAAQIECNQTEPjrzUzHBAgQIECAAAECBAgQIEAgFRD4UyIFBAgQIECAAAECBAgQIECgnoDAX29mOiZAgAABAgQIECBAgAABAqmAwJ8SKSBAgAABAgQIECBAgAABAvUEBP56M9MxAQIECBAgQIAAAQIECBBIBQT+lEgBAQIECBAgQIAAAQIECBCoJyDw15uZjgkQIECAAAECBAgQIECAQCog8KdECggQIECAAAECBAgQIECAQD0Bgb/ezHRMgAABAgQIECBAgAABAgRSAYE/JVJAgAABAgQIECBAgAABAgTqCQj89WamYwIECBAgQIAAAQIECBAgkAoI/CmRAgIECBAgQIAAAQIECBAgUE9A4K83Mx0TIECAAAECBAgQIECAAIFUQOBPiRQQIECAAAECBAgQIECAAIF6AgJ/vZnpmAABAgQIECBAgAABAgQIpAICf0qkgAABAgQIECBAgAABAgQI1BMQ+OvNTMcECBAgQIAAAQIECBAgQCAVEPhTIgUECBAgQIAAAQIECBAgQKCegMBfb2Y6JkCAAAECBAgQIECAAAECqYDAnxIpIECAAAECBAgQIECAAAEC9QQE/noz0zEBAgQIECBAgAABAgQIEEgFBP6USAEBAgQIECBAgAABAgQIEKgnIPDXm5mOCRAgQIAAAQIECBAgQIBAKiDwp0QKCBAgQIAAAQIECBAgQIBAPQGBv97MdEyAAAECBAgQIECAAAECBFIBgT8lUkCAAAECBAgQIECAAAECBOoJCPz1ZqZjAgQIECBAgAABAgQIECCQCgj8KZECAgQIECBAgAABAgQIECBQT0DgrzczHRMgQIAAAQIECBAgQIAAgVRA4E+JFBAgQIAAAQIECBAgQIAAgXoCAn+9memYAAECBAgQIECAAAECBAikAgJ/SqSAAAECBAgQIECAAAECBAjUExD4681MxwQIECBAgAABAgQIECBAIBUQ+FMiBQQIECBAgAABAgQIECBAoJ6AwF9vZjomQIAAAQIECBAgQIAAAQKpgMCfEikgQIAAAQIECBAgQIAAAQL1BAT+ejPTMQECBAgQIECAAAECBAgQSAUE/pRIAQECBAgQIECAAAECBAgQqCcg8NebmY4JECBAgAABAgQIECBAgEAqIPCnRAoIECBAgAABAgQIECBAgEA9AYG/3sx0TIAAAQIECBAgQIAAAQIEUgGBPyVSQIAAAQIECBAgQIAAAQIE6gkI/PVmpmMCBAgQIECAAAECBAgQIJAKCPwpkQICBAgQIECAAAECBAgQIFBPQOCvNzMdEyBAgAABAgQIECBAgACBVEDgT4kUECBAgAABAgQIECBAgACBegICf72Z6ZgAAQIECBAgQIAAAQIECKQCAn9KpIAAAQIECBAgQIAAAQIECNQTEPjrzUzHBAgQIECAAAECBAgQIEAgFRD4UyIFBAgQIECAAAECBAgQIECgnoDAX29mOiZAgAABAgQIECBAgAABAqmAwJ8SKSBAgAABAgQIECBAgAABAvUEBP56M9MxAQIECBAgQIAAAQIECBBIBQT+lEgBAQIECBAgQIAAAQIECBCoJyDw15uZjgkQIECAAAECBAgQIECAQCog8KdECggQIECAAAECBAgQIECAQD0Bgb/ezHRMgAABAgQIECBAgAABAgRSAYE/JVJAgAABAgQIECBAgAABAgTqCQj89WamYwIECBAgQIAAAQIECBAgkAoI/CmRAgIECBAgQIAAAQIECBAgUE9A4K83Mx0TIECAAAECBAgQIECAAIFUQOBPiRQQIECAAAECBAgQIECAAIF6AgJ/vZnpmAABAgQIECBAgAABAgQIpAICf0qkgAABAgQIECBAgAABAgQI1BMQ+OvNTMcECBAgQIAAAQIECBAgQCAVEPhTIgUECBAgQIAAAQIECBAgQKCegMBfb2Y6JkCAAAECBAgQIECAAAECqYDAnxIpIECAAAECBAgQIECAAAEC9QQE/noz0zEBAgQIECBAgAABAgQIEEgFBP6USAEBAgQIECBAgAABAgQIEKgnIPDXm5mOCRAgQIAAAQIECBAgQIBAKiDwp0QKCBAgQIAAAQIECBAgQIBAPQGBv97MdEyAAAECBAgQIECAAAECBFIBgT8lUkCAAAECBAgQIECAAAECBOoJCPz1ZqZjAgQIECBAgAABAgQIECCQCgj8KZECAgQIECBAgAABAgQIECBQT0DgrzczHRMgQIAAAQIECBAgQIAAgVRA4E+JFBAgQIAAAQIECBAgQIAAgXoCAn+9memYAAECBAgQIECAAAECBAikAgJ/SqSAAAECBAgQIECAAAECBAjUExD4681MxwQIECBAgAABAgQIECBAIBUQ+FMiBQQIECBAgAABAgQIECBAoJ6AwF9vZjomQIAAAQIECBAgQIAAAQKpgMCfEikgQIAAAQIECBAgQIAAAQL1BAT+ejPTMQECBAgQIECAAAECBAgQSAUE/pRIAQECBAgQIECAAAECBAgQqCcg8NebmY4JECBAgAABAgQIECBAgEAqIPCnRAoIECBAgAABAgQIECBAgEA9AYG/3sx0TIAAAQIECBAgQIAAAQIEUgGBPyVSQIAAAQIECBAgQIAAAQIE6gkI/PVmpmMCBAgQIECAAAECBAgQIJAKCPwpkQICBAgQIECAAAECBAgQIFBPQOCvNzMdEyBAgAABAgQIECBAgACBVEDgT4kUECBAgAABAgQIECBAgACBegICf72Z6ZgAAQIECBAgQIAAAQIECKQCAn9KpIAAAQIECBAgQIAAAQIECNQTEPjrzUzHBAgQIECAAAECBAgQIEAgFRD4UyIFBAgQIECAAAECBAgQIECgnoDAX29mOiZAgAABAgQIECBAgAABAqmAwJ8SKSBAgAABAgQIECBAgAABAvUEBP56M9MxAQIECBAgQIAAAQIECBBIBQT+lEgBAQIECBAgQIAAAQIECBCoJyDw15uZjgkQIECAAAECBAgQIECAQCog8KdECggQIECAAAECBAgQIECAQD0Bgb/ezHRMgAABAgQIECBAgAABAgRSAYE/JVJAgAABAgQIECBAgAABAgTqCQj89WamYwIECBAgQIAAAQIECBAgkAoI/CmRAgIECBAgQIAAAQIECBAgUE9A4K83Mx0TIECAAAECBAgQIECAAIFUQOBPiRQQIECAAAECBAgQIECAAIF6AgJ/vZnpmAABAgQIECBAgAABAgQIpAICf0qkgAABAgQIECBAgAABAgQI1BMQ+OvNTMcECBAgQIAAAQIECBAgQCAVEPhTIgUECBAgQIAAAQIECBAgQKCegMBfb2Y6JkCAAAECBAgQIECAAAECqYDAnxIpIECAAAECBAgQIECAAAEC9QQE/noz0zEBAgQIECBAgAABAgQIEEgFBP6USAEBAgQIECBAgAABAgQIEKgnIPDXm5mOCRAgQIAAAQIECBAgQIBAKiDwp0QKCBAgQIAAAQIECBAgQIBAPQGBv97MdEyAAAECBAgQIECAAAECBFIBgT8lUkCAAAECBAgQIECAAAECBOoJCPz1ZqZjAgQIECBAgAABAgQIECCQCgj8KZECAgQIECBAgAABAgQIECBQT0DgrzczHRMgQIAAAQIECBAgQIAAgVRA4E+JFBAgQIAAAQIECBAgQIAAgXoCAn+9memYAAECBAgQIECAAAECBAikAgJ/SqSAAAECBAgQIECAAAECBAjUExD4681MxwQIECBAgAABAgQIECBAIBUQ+FMiBQQIECBAgAABAgQIECBAoJ6AwF9vZjomQIAAAQIECBAgQIAAAQKpgMCfEikgQIAAAQIECBAgQIAAAQL1BAT+ejPTMQECBAgQIECAAAECBAgQSAUE/pRIAQECBAgQIECAAAECBAgQqCcg8NebmY4JECBAgAABAgQIECBAgEAqIPCnRAoIECBAgAABAgQIECBAgEA9AYG/3sx0TIAAAQIECBAgQIAAAQIEUoH/AvniHhYFQnAPAAAAAElFTkSuQmCC;" parent="1" vertex="1">
          <mxGeometry x="319.85" y="200.31" width="80" height="79.69" as="geometry" />
        </mxCell>
        <mxCell id="hqfhk60S6aq-k6Tqml1s-18" value="" style="sketch=0;html=1;aspect=fixed;strokeColor=none;shadow=0;fillColor=#3B8DF1;verticalAlign=top;labelPosition=center;verticalLabelPosition=bottom;shape=mxgraph.gcp2.phone_android" parent="1" vertex="1">
          <mxGeometry x="416.33" y="115" width="39.2" height="70" as="geometry" />
        </mxCell>
        <mxCell id="_A6ekc_ZDFp7eWVVz6fK-3" value="LINE 公式アカウント" style="text;html=1;align=center;verticalAlign=middle;resizable=0;points=[];autosize=1;strokeColor=none;fillColor=none;" parent="1" vertex="1">
          <mxGeometry x="288.85" y="280" width="140" height="30" as="geometry" />
        </mxCell>
        <mxCell id="_A6ekc_ZDFp7eWVVz6fK-4" value="API Gateway" style="text;html=1;align=center;verticalAlign=middle;resizable=0;points=[];autosize=1;strokeColor=none;fillColor=none;" parent="1" vertex="1">
          <mxGeometry x="313.85" y="473" width="90" height="30" as="geometry" />
        </mxCell>
        <mxCell id="_A6ekc_ZDFp7eWVVz6fK-8" value="Lambda" style="text;html=1;align=center;verticalAlign=middle;resizable=0;points=[];autosize=1;strokeColor=none;fillColor=none;" parent="1" vertex="1">
          <mxGeometry x="324.92" y="633" width="70" height="30" as="geometry" />
        </mxCell>
        <mxCell id="_A6ekc_ZDFp7eWVVz6fK-11" value="" style="endArrow=classic;html=1;rounded=0;entryX=0.5;entryY=0;entryDx=0;entryDy=0;entryPerimeter=0;exitX=0.501;exitY=1.183;exitDx=0;exitDy=0;exitPerimeter=0;" parent="1" source="_A6ekc_ZDFp7eWVVz6fK-3" target="hqfhk60S6aq-k6Tqml1s-1" edge="1">
          <mxGeometry width="50" height="50" relative="1" as="geometry">
            <mxPoint x="359.59899999999993" y="360" as="sourcePoint" />
            <mxPoint x="409.92" y="260" as="targetPoint" />
          </mxGeometry>
        </mxCell>
        <mxCell id="_A6ekc_ZDFp7eWVVz6fK-13" value="" style="endArrow=classic;html=1;rounded=0;entryX=0.5;entryY=0;entryDx=0;entryDy=0;entryPerimeter=0;" parent="1" target="hqfhk60S6aq-k6Tqml1s-3" edge="1">
          <mxGeometry width="50" height="50" relative="1" as="geometry">
            <mxPoint x="359.92" y="503" as="sourcePoint" />
            <mxPoint x="409.92" y="453" as="targetPoint" />
          </mxGeometry>
        </mxCell>
        <mxCell id="_A6ekc_ZDFp7eWVVz6fK-15" value="" style="swimlane;startSize=0;" parent="1" vertex="1">
          <mxGeometry x="240" y="360" width="230" height="480" as="geometry" />
        </mxCell>
        <mxCell id="_A6ekc_ZDFp7eWVVz6fK-16" value="" style="shape=image;verticalLabelPosition=bottom;labelBackgroundColor=default;verticalAlign=top;aspect=fixed;imageAspect=0;image=data:image/png,iVBORw0KGgoAAAANSUhEUgAAAOEAAADhCAMAAAAJbSJIAAABUFBMVEUWKzz/////mgAYKj4WKz7/nAD/mQD//vz+/v8XLD0ZKjz//v8UKToVLDz///wXKj04SFYTJjsAHDAAHC4AGCsKJDgAIDTJzdMAECcAJj3R19sAHTIADiYAGC4AJDkAJzoAACAAABtGUl4AITIADCUAFi8AITqraxEVKkMsPEuSmZ/q7fDAxctweoJjbXbe4eOut7sAEyXw9PdQXWVrc3uZoakAJUPOfAnjiwQnKy8AJjOCURTukQBGNyU3My6Ci5QlMz9VYGU1RVSIkZUwPUWzvMIACyp9g4errbBJWGZdZXKGkJG3vcc+TlyYnaIAAAotNklwSh65cQ+bYwp/URtTPCBANycULDR8WBlAMCqrdA2SWxdqRSbhkQDYhgnGdwN9TiQAFT4dJyg3OC1aPSgsJSnBfAaUYxQcJUG2bAyIYRYxJC5IMSBqTRwkKyxDOiN4bHrZAAAVDElEQVR4nO1c+1vbSJaVUNmW5CoL2Zb8QjiNsRGWsYkBY4gB50F4bCczvEJ6ScNMejqPnU7v///b3qqSZNmQTmcik6+/rZOEL9ar6qhu3XvurTKSJCAgICAgICAgICAgICAgICAgICAgICAgICAgICAgICAgICAgICAgICAgICAgICAgICAgICAgICAg8P8dhqJohEgISRKiP+l/JG3sEkVR4mxRMRRM20FIQ9pEU9MAdB9RnqaCLQCG/yDt1iUxNgjvkyiKCW2ZiklpxvjsOwHdN3A2m8uT5ReAZZzLZS08eQlm+OqH33UXxrlsTlpmbdWyees/eOzX9QFVs/by+kar43ldgOd19pvHxLEkHYWX1NjoWtkcQmjsbqJYDj0D56zJcwjhvG3V4E/OP6PTV5WrLeytlv3GyvvN9nIlbymGMSV+yLBzC81CVx5Bpf86GwuOGZgmyTULDPvr2XESErFerLJTrcNnFhqzZc20FlZb7GQzHx7NkZVIa7Qt2Ss8nc2aU2KoZ4crBWgmk0rBX95qikHubmiWfxXGQZ/UNWvsfoPkO/xMRi7beHxG4VonuC3PDVHDuRV6LJWJNJWGdruryzWYnfHzw7UDj/YuFXmjKvtAf5QXcnARNIsrnVRaVVW4YLWOo6Oo2MfsHpXecGSRMUO123AqTW/rPqCfEUzmff/ZPkP/7aRlufMMS1NgWHnq07ob3gubX1df9Y9kvB/GuoGc5qjDe5VxhsXgLnm/DmOou9Zy+XNNqfJGPXZ+MALFspxKfa5R6HpnyPycnlsPD86a0SfguUifWw+UKEMUGLAsr9jwGM3CZTmd/lxbhfoUIqMCfQCGk6OYCnqRllfnDI1as9INjuw1ok9A2Bt12SuaEYbEmlX9c90hDXrICcaUH1fBlwYDCPOk4MTOD95qPhiBtFdefbqy3l5faf7YgUkVuAJ5waRjZjqt4FXvF0fRS5Maj6OvZnbMDdkHss+w9VBRdFwJDSEtez/utY9mZxfW2nuH5a48PYYOt6PO4foTO1+xK7ZdyeaVditieXPUi6Ps02B8vdrIY2pS5akcwYodfTpMQ38G7Nk6MMx3ggmhPn3mZG0aYq2K7Vize9Sdt6bBUHJgDL3VNatuY6wjQ4d/NPo9PwgsN9VdpuOiWU+4i5VT6gKW9PABi4Uow+j4AsNOYAk61g1stWX/Y/dozsSYylJdNwwDY8c5Wi20rVvd+3agWvtwb9nhEk1ngP9Ao89fjo8Llp6XU/6UOaiEcV3DFY/HFuqvVLWTGzFE1qw/hKnycxhtt3jIPsMcbBalyHV06upUGE2BILRbcyrmpPKFJo1c6AZX6+xCiAqcitxaDOMWxpyF2mVDnlafjCQmyh3IfmRtOhqW3GyZf06rYzoUceeE8IRYigdEQyaWJlMl2qaz5xPMlOfohZJ1xPqXycheDvsMsZRd4b0+ZBRTcns0EXFxH0ya3qIuUCNRbE9lkSnlPbjNELKoqTD8LDDMu2Ai5rEGORxuhH5iwfLNVHEpC2bK5Qyz4MNi6IaQ7fnXd6gVYJT1Al/1AC6KOeP8eijFoD9yDRE6yiOB8rTij4Hm2h2VhlN1+ZDN0VS5GBqbtRCEWSpWIBoGDOXuQxx7Tv3VQO5iOWAIs4bm4dvHAcNW4DGJ+YTFarkzty5zg1R0v+MjOwe5yg6Aukj7vsr5/gwNUmzx/qTkWc4HW13fTL3AUxB7nY2cvL/4pMs7v2b5kQQtBkHVK/KqiLMv+97Ym826pqLf3fQ9AZKi1ZAhd+N4LugyjYiMI64f8kv2nGyZ2+RLx7dSnAsSrkN+CGf3QnnoHddprkSmX6H5LHSSP5xgiCoHgd0+zfFR5KYMY7hg0eSD9r+Q94U5DqJh4F81PAyTTFltHecq1pSLF1EYCrLsrFME5KmaglwdGHLfDsmEQoWbYi13fUnemuN9QzlKKp32iFHxw4ZHow/i8ZMdyHStwPk8P4SJGkxOtbw3m89btM7Hqn1T5YdQwxkerTQP9wGHzZW12aFTeRBlSNtHuF7mBFkAoTfOM+eTpq4HP+PBTz2apw+UsFPwxc7+nOQzRMPAmwYkm0dW1qK1kukyxNlae78TyaDUbqewcbwfKBKfoYbzXNYApTVueM4GP9B0YJb64fK/HF1CGsbYl3PySjZgSLLrEX6skqGWXy7kqGqcjtshBLSKblkHrHISzpE0z4mDiB8ypFMrw7Vzs44kNk70YwYcKCEP/DfSmqNjqFiPuYDJdDUclOwIKjYjLaV4WkhrXjUbgd8x9GkUo7DzpCBHCN1CyJDqsI6fHPCIiHUvw4y2hkHBcD+kekWJ1iucl37xoFDHSuAywQz2VFbUGUe3tVaERgwUs3AjuqJhp92NFIb+mKFUPPQPQkREkMM/5reWqc4ECcOkqfqCkkc/BOWRg8aIIRyvr5XluxrcX7bMSX387YCs1FlXeXtqOlqvSY3ecpQhUPLHe83SDBRkv00a8HDO45ev2LpBcJ5nG7L6xNSicwwmxUqZXxgBXOutZZESM0MdcqcXQYhi+Z1XptXbcifo3SRDhXj+iaZDFPN5i16iyse2AQH04Y/8ST86hktqbf+55cUxLwlhQcnm2qve7UnRXau48VcTc0GZBjxIp3m0jG0Ihtrw2drKRqt7ewyN+r7/6gsPFB0vcnfZHRpMIjAdmpY7D7GCs76XhVcx5j0oQ2Ta+WH7sDNBMuMtmzEz1AzQUYGxdPcgyzYx1iGrRZZVKUI8vDWGeiNw9x4xNfyCu9YyrWfrBDwtZZhSl+FjsczuTqsvxjN3RCtSGkLYquO1l7QEFfQAYkfrQdxjqBR5Iq9mMt32WIWFq7bbVmoOgxf/2CT2Cu/fRp5lxOQHf9Tblm4scyGe7uQ/12mCaxVroQnZV1DVo4mnGas3RdaazGpDaZDOxfFH381QUh4U/LCy4ZDiPjfvdVtjPS76yvywaFh8GqYp+896DwxRM19bjxSJVx/GyhAp+Q1/hSTjZU009rJ1UgwLpCOGBDlB8bCQ58suMIZDtkRFwoJjec6cY3XEVJqu4/xRnxFCtVqwLJCSO7V4GZpzhYDEapFWKiIgaK58B0NivlBZJEl1JfyMj3GH2zcy8BpbYQHPY/L0GST5wy+kDyCU8GLglVLqLI4zoUKK3QlI7GUnH4weercZUlFS5hNMXsv7XmfVZ6hgjfvW9HFlyDKvdHr1zyy2GDgQ5JNLd9/K0NTCJYdbxVhiLQcV4Kin0TGIbVY+lDf+xuo2GXml4p9E9RYv+W48CFxuu/FF76jpytx+8DLbdqze1BglMzRJHRtFXB9V62etiOlYC/7R8t9YeS2jPsFcs4AC9GdU6weu7jIe/lKpAsKj4vqlWMrQ0uNMo0bWAVY6fgobOKgIp0ChRdiH1tsdqkx2d2p6wALYcwngRyG5VUdfZqijOV/upml5JE5Xozz0nUlG3l8cG0KMnwcam03S6F1BUVFtpplJ7hcNndfANX8tPC0/9iPjSlbXI+u6d3gdVnGDF8IXn7vLOFbxjQJfmoFcwUCSRmhtW5GIYdWb4cIpONp6xHJQuETmpVm39mqjc0EFkq4kpeQ0pIaRaYVqxHYsg+6kYdEF8kEF0TfgPA5St3Ix3n0nKNsMVu7ljXpQaXARauBDfzGfMlQ9bEZsTRl2x9KC2cgai5/zq/6rKTyIaFLdWuuUm7PZGiaMN52BiuS6rjPrBaqmmY25NgXzhhOEGHdQrNH3h3E1a7XLcoQhGFslMohGMbqelvZykV0ivpThT83IB05kUinMD3mr7WEuB01hXdcRxqaTW/eCddTu32MmSKTFzii13z/W7FzOGq5tlANmQTWjs4iNYD8PIZWDUW6ngt9UQhrIHI5ty3kWVWx64DG9VrP9RMO1bM7Gw4U9PyGmaerhXNyLMzi7EjJUZbVTaLXKHs+IQSoedsKcuF1TRrLGeqZGEuSnWTOkASoputWiPC5ogjoWGy3IRFu0tS68Rj8ZTXWGca8gEglXAosbTa00y4hSkMqshEdbxZAhyKziiAZN9lHkgcWNyKnxWUWyAUN4ccGDM5HEontUi319TZOsZ95oFMM9FbTgcliz8mXffoBhWAZDiORfBhMnnfLG1jWRvT6qpNHgFkWFJltpsI60vz7Dd5eFBNs5rMWf46Pcmne7LpSCfHjRNOxj2j4YUXnZCp0pMKytBd1Ky4Vi9GkKHnbTQRWyM7G1SMEFOeR3q0VvzRnbpxMbQ2TPlicbk9XCQt5ASKE2B2yb2DKiDMloIxDfCRQhEXG0zewYQ2yauDle8x6huzqsTKnsjZBF/HZTdBMNLUMX2rV5Vms08qBfymuOIaEIQ1DlRx2VodvKj+lZg1gL4amhMdkUyi7v+dsSAydGN+3J3f0jB09j254P7AwPWrS8RvvlFZoLTjguenZtDVu3361tLjA8yymTzsHCs+zUcg3fIUlx1nm2cljwwpqw2u20ws0g0wJSjEp++OK43W4fL/zdqVgoJGgojQa6RYLqArbZx7qjSI0UfuruPmNDw7ZjLy+0955ubGw099oLwyzdeTvVbQoa9FM3TMuGP3QbT9TusOLqt7ZEwhGisWCu3N4uyZMDXdc+4xehBUPSTSvr1Ot1p2FZJt1ziWJNKQTuF99zoVtAQGACuh7zQjcJf3w/aLRwoiigAyHyguTB1PFALIl7Kfi7gkikVGo0Stvb1aplNXolRFwUj8ABm4jdLr4WBOOe/ftvJ1dLpzebgNOls/OLrRr+dtMCDaMgxZ3yJpY/ACHIdS+lXu3V+bt+ciYBmAHAz0Syf3pR/eaSIrncblS3dcn4brsDkaaT3tajzSSnNoZk4nXvW5+vuDtLZz/1MJnWt8W+BEgkq/qjPh2zCYZJGNHktf2tM5E0/juRGFxtNbBL3O8yF9H8m34CyAS8qImOWA6+PZlqvKaP75/XStNLO/8IuPookUiCiTJqHDP8E8M3MySksUSfmLj+ZDa+fHns0PX6z7T9waB/vXlzenr68ePHm+sBJc0G89vHkGDXvoJHwVvc/NQoKbqi0KGc/AboFIH/sXR1/mZndwtS6fkqoLZ9uXPeT3JTHVRiaMGonQy4XWyebM/TGomu3yNDBKRKPQvR783QrwljmhjbvwzA08D0uW7EILcw6V2wuZ5IJt6dXPaglXtkSMtZikG/q8i/bEH3EUHo+uc1Z3haiqEJopDe7maCejHqcx792nAV9t3B+3Gt8DY1CPvQDwgcpgnqlJpR7zTBGF7FwJAC9d6eJekj6Uj+fPbKmnfhzd6n6FUIOACr9Psvb0uSCYb5z03uaf5VjakB0uudM8unNBODdydmr/ThHhlqxDWrjZ2z/uD6AjSchOvXPBwOYwphGtJJdeea0ePS4vpqZ7tK5T77M0Xwbyegam/r5AbeL4StS4VuJB+wMdycj7Eps/QWImMy6SsLGMh//DpfdbEbeh0Uu/8hxDB0Vyo1av96/zMLWRABtyANcHcStC+Jq2qMelknHxqf+olQE0Jrg6VPW6UqCpI0FPu3dxA48ur89qura6BHXyuQWiphRWlc0c/JxK/VGN0dgfy6urvEFSJTvVQ+9ZcucK2E2K4BYBiPPid8YQJjxZyv/fLoJsGTJZY1nW4R1zAb7xLUkK4bSrxTRFFKlZP+DH17DGw4geTJr7hUQqZyeYmMOLaAuBDxiGI25i93rq6jWVNicD4PPvUD2R0kaYR+1DPiZojM3i9LIUUu9eHT4N3r37bsXg9EXRy/XkVXSqVe7fc3S1SbsUDM6CUTNzugNwzN7H2i9poc/I5iSPKjYJUgs3exOTMTMOQmS99z//T8Yqtasv6TX9sSBUKlanX3zfvNAXUm1HUn+bSY6b+2XbBKYpAeGC40/b43jXU2ZOilt+f9cGLw18u860zy+vTRxZZVKpUwwXQZh/82IsWFjkxWeniQ0fhmLpjk8MOQiNtobO++OXs3YJOcWUhoLac/+fm8QrYGLCzvmtMRj5ph9i7fDyIEw5SbYnC99OhiF/ca1SpIZJCUVHIx7zH5IL4tBU6DqibVXq+k7765Ou3D2CXCWc4p0gB8YZf8yEtKJywyX/WmJI8V/fJSabxaGiTGCSZ5EGF56qB/enZ+8dOWbjVKllU16Dfpx8dQ1w2YUgaiBcIG3vrp4tHZu/6AWyX1LVGGkEKcf9imwo3fW3lHT//8KwjH6egqCLiIuKWLJd8PJMfMlc8blooP+punS+9PLnZe0ezObgSAiTbfmN82t3Z3dy7Or5ZuNgeD0GWyqJcMBo+2AGr/bekytAKCwJPC5a+nrRsx6MSPoFUTUYaBWYXBhEmPGZahv4MUfYnj48fTdzeb1zBmyZmwQDiTHH9Q8JD+o61edGcm7v0PteN3DSpQpwgI7251/tXSzzOfZ5gMBjWZ5A43AjY6lF5g3rfB6F8/umyYRuTbQjq2+3Dr9VZ1yqUxcBCXEJW3/01jMtdTk2PA7TaR4DwTkYLZDPNKVHaxSZecueW1OOvBzQkufdAJGe0fRlLvAp40+K0q3UNpDJo1qiWdin5ma8k7h+K2/f0J0BHun/1m9T5I42UKguZvQNu8abhTp8cBoQ737FdXfSrF42JITWJwerLVq2I2TuMML/sz/Ysqmu4kjAAcNlGqDXyxxOvSk2Hyaxj6d4PZ3pzvzpeI5GK2R27MGsn21dJO1ZXucZkBQayTjPnS24szf+kkERHmf4Zh4JoSLDwMbl7vNkrA7c54jpCO53v3W5ymvxxHwjpW3MbWxdXmIIhlX8uQ+aTrj59eAb1Lthx6J0MXxP09r4QxhsTQCQiUaqn2+6ezzcFMqEpY0Lgd6XwxFtEKVO6d71olcCG0dqh8hiF14sp9mugkQIlVq5e7J+9PqQTjYcFfbqDM/FQhOMAKzfRQf/PsZOdyvvrXWLRGrnHZ6zUuX705X9q8HiSDqkAyyIL8oWMfqbB7/+l/L0GoE1e5N//4bSAfJJfOIxeyKHtr97dPj84+noJE6w8GAz7jQMT1N29Ol65OLl5tWfOlkl/Ydv8SIzgBmEsWzR4gM976Nyhtht+3MN4GIV5i3P764CsOlxhGiHAgl6XGU9wIe6/wq6gKIth0KRRXgYyf1uW+8/6OOMFtcVTIwPw3LQsICAgICAgICAgICAgICAgICAgICAgICAgICAgICAgICAgICAgICAgICAgICAgICAgITAH/B/9KH6HMDNLVAAAAAElFTkSuQmCC;" parent="_A6ekc_ZDFp7eWVVz6fK-15" vertex="1">
          <mxGeometry x="-5.773159728050814e-15" width="50" height="50" as="geometry" />
        </mxCell>
        <mxCell id="hqfhk60S6aq-k6Tqml1s-7" value="" style="outlineConnect=0;dashed=0;verticalLabelPosition=bottom;verticalAlign=top;align=center;html=1;shape=mxgraph.aws3.dynamo_db;fillColor=#2E73B8;gradientColor=none;" parent="_A6ekc_ZDFp7eWVVz6fK-15" vertex="1">
          <mxGeometry x="85.84999999999997" y="345" width="72" height="81" as="geometry" />
        </mxCell>
        <mxCell id="_A6ekc_ZDFp7eWVVz6fK-9" value="DynamoDB" style="text;html=1;align=center;verticalAlign=middle;resizable=0;points=[];autosize=1;strokeColor=none;fillColor=none;" parent="_A6ekc_ZDFp7eWVVz6fK-15" vertex="1">
          <mxGeometry x="81.85000000000002" y="426" width="80" height="30" as="geometry" />
        </mxCell>
        <mxCell id="_A6ekc_ZDFp7eWVVz6fK-17" value="" style="endArrow=classic;html=1;rounded=0;entryX=0;entryY=0.25;entryDx=0;entryDy=0;" parent="_A6ekc_ZDFp7eWVVz6fK-15" target="hqfhk60S6aq-k6Tqml1s-8" edge="1">
          <mxGeometry width="50" height="50" relative="1" as="geometry">
            <mxPoint x="157.85000000000002" y="220" as="sourcePoint" />
            <mxPoint x="320" y="220" as="targetPoint" />
          </mxGeometry>
        </mxCell>
        <mxCell id="_A6ekc_ZDFp7eWVVz6fK-14" value="" style="endArrow=classic;html=1;rounded=0;" parent="_A6ekc_ZDFp7eWVVz6fK-15" edge="1">
          <mxGeometry width="50" height="50" relative="1" as="geometry">
            <mxPoint x="110" y="295" as="sourcePoint" />
            <mxPoint x="110.07999999999998" y="345" as="targetPoint" />
          </mxGeometry>
        </mxCell>
        <mxCell id="_A6ekc_ZDFp7eWVVz6fK-21" value="" style="endArrow=classic;html=1;rounded=0;" parent="_A6ekc_ZDFp7eWVVz6fK-15" edge="1">
          <mxGeometry width="50" height="50" relative="1" as="geometry">
            <mxPoint x="130.16999999999996" y="345" as="sourcePoint" />
            <mxPoint x="129.9999999999999" y="295" as="targetPoint" />
          </mxGeometry>
        </mxCell>
        <mxCell id="_A6ekc_ZDFp7eWVVz6fK-23" value="" style="endArrow=classic;html=1;rounded=0;" parent="_A6ekc_ZDFp7eWVVz6fK-15" edge="1">
          <mxGeometry width="50" height="50" relative="1" as="geometry">
            <mxPoint x="149" y="190" as="sourcePoint" />
            <mxPoint x="200" y="-60" as="targetPoint" />
            <Array as="points">
              <mxPoint x="210" y="90" />
            </Array>
          </mxGeometry>
        </mxCell>
        <mxCell id="_A6ekc_ZDFp7eWVVz6fK-26" value="&lt;font style=&quot;font-size: 15px;&quot;&gt;&lt;b&gt;②&lt;/b&gt;&lt;/font&gt;" style="text;html=1;align=center;verticalAlign=middle;resizable=0;points=[];autosize=1;strokeColor=none;fillColor=none;" parent="_A6ekc_ZDFp7eWVVz6fK-15" vertex="1">
          <mxGeometry x="81.85000000000002" y="150" width="40" height="30" as="geometry" />
        </mxCell>
        <mxCell id="_A6ekc_ZDFp7eWVVz6fK-27" value="&lt;font style=&quot;font-size: 15px;&quot;&gt;&lt;b&gt;③&lt;/b&gt;&lt;/font&gt;" style="text;html=1;align=center;verticalAlign=middle;resizable=0;points=[];autosize=1;strokeColor=none;fillColor=none;" parent="_A6ekc_ZDFp7eWVVz6fK-15" vertex="1">
          <mxGeometry x="134.00000000000003" y="300" width="40" height="30" as="geometry" />
        </mxCell>
        <mxCell id="_A6ekc_ZDFp7eWVVz6fK-29" value="&lt;span style=&quot;font-size: 15px;&quot;&gt;&lt;b&gt;⑥&lt;/b&gt;&lt;/span&gt;" style="text;html=1;align=center;verticalAlign=middle;resizable=0;points=[];autosize=1;strokeColor=none;fillColor=none;" parent="_A6ekc_ZDFp7eWVVz6fK-15" vertex="1">
          <mxGeometry x="174" y="80" width="40" height="30" as="geometry" />
        </mxCell>
        <mxCell id="S4sRolWmDcTAJcH40l6V-1" value="&lt;font style=&quot;font-size: 15px;&quot;&gt;&lt;b&gt;⑤&lt;/b&gt;&lt;/font&gt;" style="text;html=1;align=center;verticalAlign=middle;resizable=0;points=[];autosize=1;strokeColor=none;fillColor=none;" vertex="1" parent="_A6ekc_ZDFp7eWVVz6fK-15">
          <mxGeometry x="134.00000000000003" y="320" width="40" height="30" as="geometry" />
        </mxCell>
        <mxCell id="_A6ekc_ZDFp7eWVVz6fK-22" value="" style="endArrow=classic;html=1;rounded=0;" parent="1" edge="1">
          <mxGeometry width="50" height="50" relative="1" as="geometry">
            <mxPoint x="573.85" y="610" as="sourcePoint" />
            <mxPoint x="403.85" y="610" as="targetPoint" />
          </mxGeometry>
        </mxCell>
        <mxCell id="_A6ekc_ZDFp7eWVVz6fK-28" value="&lt;font style=&quot;font-size: 15px;&quot;&gt;&lt;b&gt;④&lt;/b&gt;&lt;/font&gt;" style="text;html=1;align=center;verticalAlign=middle;resizable=0;points=[];autosize=1;strokeColor=none;fillColor=none;" parent="1" vertex="1">
          <mxGeometry x="480" y="579" width="40" height="30" as="geometry" />
        </mxCell>
        <mxCell id="_A6ekc_ZDFp7eWVVz6fK-31" value="&lt;span style=&quot;font-size: 15px;&quot;&gt;&lt;b&gt;①&lt;/b&gt;&lt;/span&gt;" style="text;html=1;align=center;verticalAlign=middle;resizable=0;points=[];autosize=1;strokeColor=none;fillColor=none;" parent="1" vertex="1">
          <mxGeometry x="319.85" y="320" width="40" height="30" as="geometry" />
        </mxCell>
      </root>
    </mxGraphModel>
  </diagram>
</mxfile>
